<?xml version="1.0" encoding="UTF-8"?>
<svg xmlns="http://www.w3.org/2000/svg" viewBox="0 0 188.2 44.1">
<style type="text/css">
	.st3{fill:#FF4E00;}
	.st4{fill:#484848;}
</style>
<g>
	<path class="st3" d="M4.6,6.3h5.7l13.1,17.2V6.3h6.1v28h-5.2L10.7,16.5v17.8H4.6V6.3z"/>
	<path class="st3" d="M31.3,23.7L31.3,23.7c0-6.2,4.4-11.2,10.6-11.2c7.2,0,10.4,5.6,10.4,11.6c0,0.5,0,1-0.1,1.6H37.4
		c0.6,2.8,2.5,4.2,5.2,4.2c2,0,3.5-0.6,5.2-2.2l3.5,3.1c-2,2.5-4.9,4-8.8,4C36.1,34.8,31.3,30.3,31.3,23.7z M46.4,21.9
		c-0.4-2.7-2-4.6-4.5-4.6c-2.5,0-4.2,1.8-4.6,4.6H46.4z"/>
	<path class="st4" d="M100.9,23.6L100.9,23.6c0,6.2-4.4,11.2-10.6,11.2c-7.2,0-10.4-5.6-10.4-11.6c0-0.5,0,1,0.1-1.6h14.9
		c-0.6-2.8-2.5-4.2-5.2-4.2c-2,0-3.5,0.6-5.2,2.2L81,16.5c2-2.5,4.9-4,8.8-4C96.2,12.5,100.9,17.1,100.9,23.6z M85.8,25.4
		c0.4,2.7,2,4.6,4.5,4.6c2.5,0,4.2-1.8,4.6-4.6H85.8z"/>
	<path class="st4" d="M127.5,39.3l2-4.4c0.8,0.5,1.8,0.8,2.6,0.8c1,0,1.6-0.3,2.1-1.4l-8.4-21.5h6.4l4.9,14.6l4.7-14.6h6.3
		l-8.2,22c-1.6,4.4-3.4,6-7,6C130.7,40.8,129.1,40.3,127.5,39.3z"/>
	<path class="st4" d="M151.6,28.2V18.1h-2.6v-5.2h2.6V7.4h6.1v5.5h5v5.2h-5v9.2c0,1.4,0.6,2.1,2,2.1c1.1,0,2.1-0.3,3-0.8v4.9
		c-1.3,0.8-2.8,1.2-4.8,1.2C154.1,34.7,151.6,33.2,151.6,28.2z"/>
	<path class="st4" d="M163.4,23.7L163.4,23.7c0-6.2,4.4-11.2,10.6-11.2c7.2,0,10.4,5.6,10.4,11.6c0,0.5,0,1-0.1,1.6h-14.9
		c0.6,2.8,2.5,4.2,5.2,4.2c2,0,3.5-0.6,5.2-2.2l3.5,3.1c-2,2.5-4.9,4-8.8,4C168.1,34.8,163.4,30.3,163.4,23.7z M178.5,21.9
		c-0.4-2.7-2-4.6-4.5-4.6c-2.5,0-4.2,1.8-4.6,4.6H178.5z"/>
	<path class="st4" d="M121.3,19.7c2-1.1,3.7-2.9,3.7-6v-0.1c0-1.9-0.6-3.5-1.9-4.8c-1.6-1.6-4.1-2.5-7.3-2.5h-10.3
		c-1.5,0-2.8,1.2-2.8,2.8v25.3h13.3c6.3,0,10.5-2.6,10.5-7.7v-0.1C126.6,22.8,124.6,20.9,121.3,19.7z M108.7,11.7h6.1
		c2.6,0,4,1,4,2.9v0.1c0,2.1-1.7,3-4.4,3h-5.7V11.7z M120.4,25.9c0,2.1-1.6,3-4.4,3h-7.3v-6.2h7.1C119,22.7,120.4,23.9,120.4,25.9
		L120.4,25.9z"/>
	<path class="st3" d="M57.2,34.3L64.5,23l-6.9-10.2h-6.5l7.2,10.6l-7.5,10.9H57.2z"/>
	<path class="st4" d="M75.5,21.9l6.3-9h-6.4l-3,4.5L75.5,21.9z"/>
	<path class="st3" d="M67,34.3L74.3,23l-6.9-10.2h-6.5l7.2,10.6l-7.5,10.9H67z"/>
	<path class="st4" d="M75.4,24.4l-3.1,4.8l3.3,5.1h6.5L75.4,24.4z"/>
</g>
</svg>
