<?xml version="1.0" encoding="UTF-8"?>
<svg xmlns="http://www.w3.org/2000/svg" viewBox="0 0 1600 900">
  <g fill="none" stroke="#e6e7e8" stroke-width="1" stroke-opacity="0.25">
    <polygon points="-86.6,-150.0 -86.6,-50.0 -173.21,0.0 -259.81,-50.0 -259.81,-150.0 -173.21,-200.0"/>
    <polygon points="86.6,-150.0 86.6,-50.0 0.0,0.0 -86.6,-50.0 -86.6,-150.0 -0.0,-200.0"/>
    <polygon points="259.81,-150.0 259.81,-50.0 173.21,0.0 86.6,-50.0 86.6,-150.0 173.21,-200.0"/>
    <polygon points="433.01,-150.0 433.01,-50.0 346.41,0.0 259.81,-50.0 259.81,-150.0 346.41,-200.0"/>
    <polygon points="606.22,-150.0 606.22,-50.0 519.62,0.0 433.01,-50.0 433.01,-150.0 519.62,-200.0"/>
    <polygon points="779.42,-150.0 779.42,-50.0 692.82,0.0 606.22,-50.0 606.22,-150.0 692.82,-200.0"/>
    <polygon points="952.63,-150.0 952.63,-50.0 866.03,0.0 779.42,-50.0 779.42,-150.0 866.03,-200.0"/>
    <polygon points="1125.83,-150.0 1125.83,-50.0 1039.23,0.0 952.63,-50.0 952.63,-150.0 1039.23,-200.0"/>
    <polygon points="1299.04,-150.0 1299.04,-50.0 1212.44,0.0 1125.83,-50.0 1125.83,-150.0 1212.44,-200.0"/>
    <polygon points="1472.24,-150.0 1472.24,-50.0 1385.64,0.0 1299.04,-50.0 1299.04,-150.0 1385.64,-200.0"/>
    <polygon points="1645.45,-150.0 1645.45,-50.0 1558.85,0.0 1472.24,-50.0 1472.24,-150.0 1558.85,-200.0"/>
    <polygon points="1818.65,-150.0 1818.65,-50.0 1732.05,0.0 1645.45,-50.0 1645.45,-150.0 1732.05,-200.0"/>
    <polygon points="0.0,0.0 0.0,100.0 -86.6,150.0 -173.21,100.0 -173.21,-0.0 -86.6,-50.0"/>
    <polygon points="173.21,0.0 173.21,100.0 86.6,150.0 -0.0,100.0 0.0,-0.0 86.6,-50.0"/>
    <polygon points="346.41,0.0 346.41,100.0 259.81,150.0 173.21,100.0 173.21,-0.0 259.81,-50.0"/>
    <polygon points="519.62,0.0 519.62,100.0 433.01,150.0 346.41,100.0 346.41,-0.0 433.01,-50.0"/>
    <polygon points="692.82,0.0 692.82,100.0 606.22,150.0 519.62,100.0 519.62,-0.0 606.22,-50.0"/>
    <polygon points="866.03,0.0 866.03,100.0 779.42,150.0 692.82,100.0 692.82,-0.0 779.42,-50.0"/>
    <polygon points="1039.23,0.0 1039.23,100.0 952.63,150.0 866.03,100.0 866.03,-0.0 952.63,-50.0"/>
    <polygon points="1212.44,0.0 1212.44,100.0 1125.83,150.0 1039.23,100.0 1039.23,-0.0 1125.83,-50.0"/>
    <polygon points="1385.64,0.0 1385.64,100.0 1299.04,150.0 1212.44,100.0 1212.44,-0.0 1299.04,-50.0"/>
    <polygon points="1558.85,0.0 1558.85,100.0 1472.24,150.0 1385.64,100.0 1385.64,-0.0 1472.24,-50.0"/>
    <polygon points="1732.05,0.0 1732.05,100.0 1645.45,150.0 1558.85,100.0 1558.85,-0.0 1645.45,-50.0"/>
    <polygon points="1905.26,0.0 1905.26,100.0 1818.65,150.0 1732.05,100.0 1732.05,-0.0 1818.65,-50.0"/>
    <polygon points="-86.6,150.0 -86.6,250.0 -173.21,300.0 -259.81,250.0 -259.81,150.0 -173.21,100.0"/>
    <polygon points="86.6,150.0 86.6,250.0 0.0,300.0 -86.6,250.0 -86.6,150.0 -0.0,100.0"/>
    <polygon points="259.81,150.0 259.81,250.0 173.21,300.0 86.6,250.0 86.6,150.0 173.21,100.0"/>
    <polygon points="433.01,150.0 433.01,250.0 346.41,300.0 259.81,250.0 259.81,150.0 346.41,100.0"/>
    <polygon points="606.22,150.0 606.22,250.0 519.62,300.0 433.01,250.0 433.01,150.0 519.62,100.0"/>
    <polygon points="779.42,150.0 779.42,250.0 692.82,300.0 606.22,250.0 606.22,150.0 692.82,100.0"/>
    <polygon points="952.63,150.0 952.63,250.0 866.03,300.0 779.42,250.0 779.42,150.0 866.03,100.0"/>
    <polygon points="1125.83,150.0 1125.83,250.0 1039.23,300.0 952.63,250.0 952.63,150.0 1039.23,100.0"/>
    <polygon points="1299.04,150.0 1299.04,250.0 1212.44,300.0 1125.83,250.0 1125.83,150.0 1212.44,100.0"/>
    <polygon points="1472.24,150.0 1472.24,250.0 1385.64,300.0 1299.04,250.0 1299.04,150.0 1385.64,100.0"/>
    <polygon points="1645.45,150.0 1645.45,250.0 1558.85,300.0 1472.24,250.0 1472.24,150.0 1558.85,100.0"/>
    <polygon points="1818.65,150.0 1818.65,250.0 1732.05,300.0 1645.45,250.0 1645.45,150.0 1732.05,100.0"/>
    <polygon points="0.0,300.0 0.0,400.0 -86.6,450.0 -173.21,400.0 -173.21,300.0 -86.6,250.0"/>
    <polygon points="173.21,300.0 173.21,400.0 86.6,450.0 -0.0,400.0 0.0,300.0 86.6,250.0"/>
    <polygon points="346.41,300.0 346.41,400.0 259.81,450.0 173.21,400.0 173.21,300.0 259.81,250.0"/>
    <polygon points="519.62,300.0 519.62,400.0 433.01,450.0 346.41,400.0 346.41,300.0 433.01,250.0"/>
    <polygon points="692.82,300.0 692.82,400.0 606.22,450.0 519.62,400.0 519.62,300.0 606.22,250.0"/>
    <polygon points="866.03,300.0 866.03,400.0 779.42,450.0 692.82,400.0 692.82,300.0 779.42,250.0"/>
    <polygon points="1039.23,300.0 1039.23,400.0 952.63,450.0 866.03,400.0 866.03,300.0 952.63,250.0"/>
    <polygon points="1212.44,300.0 1212.44,400.0 1125.83,450.0 1039.23,400.0 1039.23,300.0 1125.83,250.0"/>
    <polygon points="1385.64,300.0 1385.64,400.0 1299.04,450.0 1212.44,400.0 1212.44,300.0 1299.04,250.0"/>
    <polygon points="1558.85,300.0 1558.85,400.0 1472.24,450.0 1385.64,400.0 1385.64,300.0 1472.24,250.0"/>
    <polygon points="1732.05,300.0 1732.05,400.0 1645.45,450.0 1558.85,400.0 1558.85,300.0 1645.45,250.0"/>
    <polygon points="1905.26,300.0 1905.26,400.0 1818.65,450.0 1732.05,400.0 1732.05,300.0 1818.65,250.0"/>
    <polygon points="-86.6,450.0 -86.6,550.0 -173.21,600.0 -259.81,550.0 -259.81,450.0 -173.21,400.0"/>
    <polygon points="86.6,450.0 86.6,550.0 0.0,600.0 -86.6,550.0 -86.6,450.0 -0.0,400.0"/>
    <polygon points="259.81,450.0 259.81,550.0 173.21,600.0 86.6,550.0 86.6,450.0 173.21,400.0"/>
    <polygon points="433.01,450.0 433.01,550.0 346.41,600.0 259.81,550.0 259.81,450.0 346.41,400.0"/>
    <polygon points="606.22,450.0 606.22,550.0 519.62,600.0 433.01,550.0 433.01,450.0 519.62,400.0"/>
    <polygon points="779.42,450.0 779.42,550.0 692.82,600.0 606.22,550.0 606.22,450.0 692.82,400.0"/>
    <polygon points="952.63,450.0 952.63,550.0 866.03,600.0 779.42,550.0 779.42,450.0 866.03,400.0"/>
    <polygon points="1125.83,450.0 1125.83,550.0 1039.23,600.0 952.63,550.0 952.63,450.0 1039.23,400.0"/>
    <polygon points="1299.04,450.0 1299.04,550.0 1212.44,600.0 1125.83,550.0 1125.83,450.0 1212.44,400.0"/>
    <polygon points="1472.24,450.0 1472.24,550.0 1385.64,600.0 1299.04,550.0 1299.04,450.0 1385.64,400.0"/>
    <polygon points="1645.45,450.0 1645.45,550.0 1558.85,600.0 1472.24,550.0 1472.24,450.0 1558.85,400.0"/>
    <polygon points="1818.65,450.0 1818.65,550.0 1732.05,600.0 1645.45,550.0 1645.45,450.0 1732.05,400.0"/>
    <polygon points="0.0,600.0 0.0,700.0 -86.6,750.0 -173.21,700.0 -173.21,600.0 -86.6,550.0"/>
    <polygon points="173.21,600.0 173.21,700.0 86.6,750.0 -0.0,700.0 0.0,600.0 86.6,550.0"/>
    <polygon points="346.41,600.0 346.41,700.0 259.81,750.0 173.21,700.0 173.21,600.0 259.81,550.0"/>
    <polygon points="519.62,600.0 519.62,700.0 433.01,750.0 346.41,700.0 346.41,600.0 433.01,550.0"/>
    <polygon points="692.82,600.0 692.82,700.0 606.22,750.0 519.62,700.0 519.62,600.0 606.22,550.0"/>
    <polygon points="866.03,600.0 866.03,700.0 779.42,750.0 692.82,700.0 692.82,600.0 779.42,550.0"/>
    <polygon points="1039.23,600.0 1039.23,700.0 952.63,750.0 866.03,700.0 866.03,600.0 952.63,550.0"/>
    <polygon points="1212.44,600.0 1212.44,700.0 1125.83,750.0 1039.23,700.0 1039.23,600.0 1125.83,550.0"/>
    <polygon points="1385.64,600.0 1385.64,700.0 1299.04,750.0 1212.44,700.0 1212.44,600.0 1299.04,550.0"/>
    <polygon points="1558.85,600.0 1558.85,700.0 1472.24,750.0 1385.64,700.0 1385.64,600.0 1472.24,550.0"/>
    <polygon points="1732.05,600.0 1732.05,700.0 1645.45,750.0 1558.85,700.0 1558.85,600.0 1645.45,550.0"/>
    <polygon points="1905.26,600.0 1905.26,700.0 1818.65,750.0 1732.05,700.0 1732.05,600.0 1818.65,550.0"/>
    <polygon points="-86.6,750.0 -86.6,850.0 -173.21,900.0 -259.81,850.0 -259.81,750.0 -173.21,700.0"/>
    <polygon points="86.6,750.0 86.6,850.0 0.0,900.0 -86.6,850.0 -86.6,750.0 -0.0,700.0"/>
    <polygon points="259.81,750.0 259.81,850.0 173.21,900.0 86.6,850.0 86.6,750.0 173.21,700.0"/>
    <polygon points="433.01,750.0 433.01,850.0 346.41,900.0 259.81,850.0 259.81,750.0 346.41,700.0"/>
    <polygon points="606.22,750.0 606.22,850.0 519.62,900.0 433.01,850.0 433.01,750.0 519.62,700.0"/>
    <polygon points="779.42,750.0 779.42,850.0 692.82,900.0 606.22,850.0 606.22,750.0 692.82,700.0"/>
    <polygon points="952.63,750.0 952.63,850.0 866.03,900.0 779.42,850.0 779.42,750.0 866.03,700.0"/>
    <polygon points="1125.83,750.0 1125.83,850.0 1039.23,900.0 952.63,850.0 952.63,750.0 1039.23,700.0"/>
    <polygon points="1299.04,750.0 1299.04,850.0 1212.44,900.0 1125.83,850.0 1125.83,750.0 1212.44,700.0"/>
    <polygon points="1472.24,750.0 1472.24,850.0 1385.64,900.0 1299.04,850.0 1299.04,750.0 1385.64,700.0"/>
    <polygon points="1645.45,750.0 1645.45,850.0 1558.85,900.0 1472.24,850.0 1472.24,750.0 1558.85,700.0"/>
    <polygon points="1818.65,750.0 1818.65,850.0 1732.05,900.0 1645.45,850.0 1645.45,750.0 1732.05,700.0"/>
    <polygon points="0.0,900.0 0.0,1000.0 -86.6,1050.0 -173.21,1000.0 -173.21,900.0 -86.6,850.0"/>
    <polygon points="173.21,900.0 173.21,1000.0 86.6,1050.0 -0.0,1000.0 0.0,900.0 86.6,850.0"/>
    <polygon points="346.41,900.0 346.41,1000.0 259.81,1050.0 173.21,1000.0 173.21,900.0 259.81,850.0"/>
    <polygon points="519.62,900.0 519.62,1000.0 433.01,1050.0 346.41,1000.0 346.41,900.0 433.01,850.0"/>
    <polygon points="692.82,900.0 692.82,1000.0 606.22,1050.0 519.62,1000.0 519.62,900.0 606.22,850.0"/>
    <polygon points="866.03,900.0 866.03,1000.0 779.42,1050.0 692.82,1000.0 692.82,900.0 779.42,850.0"/>
    <polygon points="1039.23,900.0 1039.23,1000.0 952.63,1050.0 866.03,1000.0 866.03,900.0 952.63,850.0"/>
    <polygon points="1212.44,900.0 1212.44,1000.0 1125.83,1050.0 1039.23,1000.0 1039.23,900.0 1125.83,850.0"/>
    <polygon points="1385.64,900.0 1385.64,1000.0 1299.04,1050.0 1212.44,1000.0 1212.44,900.0 1299.04,850.0"/>
    <polygon points="1558.85,900.0 1558.85,1000.0 1472.24,1050.0 1385.64,1000.0 1385.64,900.0 1472.24,850.0"/>
    <polygon points="1732.05,900.0 1732.05,1000.0 1645.45,1050.0 1558.85,1000.0 1558.85,900.0 1645.45,850.0"/>
    <polygon points="1905.26,900.0 1905.26,1000.0 1818.65,1050.0 1732.05,1000.0 1732.05,900.0 1818.65,850.0"/>
    <polygon points="-86.6,1050.0 -86.6,1150.0 -173.21,1200.0 -259.81,1150.0 -259.81,1050.0 -173.21,1000.0"/>
    <polygon points="86.6,1050.0 86.6,1150.0 0.0,1200.0 -86.6,1150.0 -86.6,1050.0 -0.0,1000.0"/>
    <polygon points="259.81,1050.0 259.81,1150.0 173.21,1200.0 86.6,1150.0 86.6,1050.0 173.21,1000.0"/>
    <polygon points="433.01,1050.0 433.01,1150.0 346.41,1200.0 259.81,1150.0 259.81,1050.0 346.41,1000.0"/>
    <polygon points="606.22,1050.0 606.22,1150.0 519.62,1200.0 433.01,1150.0 433.01,1050.0 519.62,1000.0"/>
    <polygon points="779.42,1050.0 779.42,1150.0 692.82,1200.0 606.22,1150.0 606.22,1050.0 692.82,1000.0"/>
    <polygon points="952.63,1050.0 952.63,1150.0 866.03,1200.0 779.42,1150.0 779.42,1050.0 866.03,1000.0"/>
    <polygon points="1125.83,1050.0 1125.83,1150.0 1039.23,1200.0 952.63,1150.0 952.63,1050.0 1039.23,1000.0"/>
    <polygon points="1299.04,1050.0 1299.04,1150.0 1212.44,1200.0 1125.83,1150.0 1125.83,1050.0 1212.44,1000.0"/>
    <polygon points="1472.24,1050.0 1472.24,1150.0 1385.64,1200.0 1299.04,1150.0 1299.04,1050.0 1385.64,1000.0"/>
    <polygon points="1645.45,1050.0 1645.45,1150.0 1558.85,1200.0 1472.24,1150.0 1472.24,1050.0 1558.85,1000.0"/>
    <polygon points="1818.65,1050.0 1818.65,1150.0 1732.05,1200.0 1645.45,1150.0 1645.45,1050.0 1732.05,1000.0"/>
  </g>
  <g fill="#e6e7e8" fill-opacity="0.4">
    <circle cx="173.21" cy="900.0" r="3"/>
    <circle cx="-173.21" cy="100.0" r="3"/>
    <circle cx="952.63" cy="-150.0" r="3"/>
    <circle cx="259.81" cy="150.0" r="3"/>
    <circle cx="1905.26" cy="1000.0" r="3"/>
    <circle cx="0.0" cy="600.0" r="3"/>
    <circle cx="1299.04" cy="1050.0" r="3"/>
    <circle cx="-86.6" cy="750.0" r="3"/>
    <circle cx="1212.44" cy="300.0" r="3"/>
    <circle cx="1299.04" cy="1150.0" r="3"/>
    <circle cx="1645.45" cy="1050.0" r="3"/>
    <circle cx="866.03" cy="1200.0" r="3"/>
    <circle cx="-86.6" cy="150.0" r="3"/>
    <circle cx="1039.23" cy="0.0" r="3"/>
    <circle cx="606.22" cy="1050.0" r="3"/>
    <circle cx="-259.81" cy="1050.0" r="3"/>
    <circle cx="-259.81" cy="850.0" r="3"/>
    <circle cx="-86.6" cy="250.0" r="3"/>
    <circle cx="173.21" cy="600.0" r="3"/>
    <circle cx="173.21" cy="1200.0" r="3"/>
    <circle cx="779.42" cy="1150.0" r="3"/>
    <circle cx="1039.23" cy="400.0" r="3"/>
    <circle cx="-259.81" cy="750.0" r="3"/>
    <circle cx="952.63" cy="250.0" r="3"/>
    <circle cx="173.21" cy="-200.0" r="3"/>
    <circle cx="1299.04" cy="250.0" r="3"/>
    <circle cx="1125.83" cy="750.0" r="3"/>
    <circle cx="1212.44" cy="1200.0" r="3"/>
    <circle cx="1818.65" cy="750.0" r="3"/>
    <circle cx="606.22" cy="850.0" r="3"/>
    <circle cx="173.21" cy="700.0" r="3"/>
    <circle cx="692.82" cy="400.0" r="3"/>
    <circle cx="1039.23" cy="-200.0" r="3"/>
    <circle cx="346.41" cy="0.0" r="3"/>
    <circle cx="1472.24" cy="850.0" r="3"/>
    <circle cx="1645.45" cy="150.0" r="3"/>
    <circle cx="-259.81" cy="-50.0" r="3"/>
    <circle cx="1385.64" cy="400.0" r="3"/>
    <circle cx="1472.24" cy="750.0" r="3"/>
    <circle cx="86.6" cy="-150.0" r="3"/>
    <circle cx="1212.44" cy="1000.0" r="3"/>
    <circle cx="1818.65" cy="250.0" r="3"/>
    <circle cx="433.01" cy="850.0" r="3"/>
    <circle cx="1645.45" cy="450.0" r="3"/>
    <circle cx="0.0" cy="1200.0" r="3"/>
    <circle cx="1732.05" cy="1200.0" r="3"/>
  </g>
</svg>
