<?xml version="1.0" encoding="UTF-8"?>
<svg xmlns="http://www.w3.org/2000/svg" viewBox="0 0 1600 900">
  <g fill="none" stroke="#e6e7e8" stroke-width="1" stroke-opacity="0.25">
    <polygon points="-43.3,-75.0 -43.3,-25.0 -86.6,0.0 -129.9,-25.0 -129.9,-75.0 -86.6,-100.0"/>
    <polygon points="43.3,-75.0 43.3,-25.0 0.0,0.0 -43.3,-25.0 -43.3,-75.0 -0.0,-100.0"/>
    <polygon points="129.9,-75.0 129.9,-25.0 86.6,0.0 43.3,-25.0 43.3,-75.0 86.6,-100.0"/>
    <polygon points="216.51,-75.0 216.51,-25.0 173.21,0.0 129.9,-25.0 129.9,-75.0 173.21,-100.0"/>
    <polygon points="303.11,-75.0 303.11,-25.0 259.81,0.0 216.51,-25.0 216.51,-75.0 259.81,-100.0"/>
    <polygon points="389.71,-75.0 389.71,-25.0 346.41,0.0 303.11,-25.0 303.11,-75.0 346.41,-100.0"/>
    <polygon points="476.31,-75.0 476.31,-25.0 433.01,0.0 389.71,-25.0 389.71,-75.0 433.01,-100.0"/>
    <polygon points="562.92,-75.0 562.92,-25.0 519.62,0.0 476.31,-25.0 476.31,-75.0 519.62,-100.0"/>
    <polygon points="649.52,-75.0 649.52,-25.0 606.22,0.0 562.92,-25.0 562.92,-75.0 606.22,-100.0"/>
    <polygon points="736.12,-75.0 736.12,-25.0 692.82,0.0 649.52,-25.0 649.52,-75.0 692.82,-100.0"/>
    <polygon points="822.72,-75.0 822.72,-25.0 779.42,0.0 736.12,-25.0 736.12,-75.0 779.42,-100.0"/>
    <polygon points="909.33,-75.0 909.33,-25.0 866.03,0.0 822.72,-25.0 822.72,-75.0 866.03,-100.0"/>
    <polygon points="995.93,-75.0 995.93,-25.0 952.63,0.0 909.33,-25.0 909.33,-75.0 952.63,-100.0"/>
    <polygon points="1082.53,-75.0 1082.53,-25.0 1039.23,0.0 995.93,-25.0 995.93,-75.0 1039.23,-100.0"/>
    <polygon points="1169.13,-75.0 1169.13,-25.0 1125.83,0.0 1082.53,-25.0 1082.53,-75.0 1125.83,-100.0"/>
    <polygon points="1255.74,-75.0 1255.74,-25.0 1212.44,0.0 1169.13,-25.0 1169.13,-75.0 1212.44,-100.0"/>
    <polygon points="1342.34,-75.0 1342.34,-25.0 1299.04,0.0 1255.74,-25.0 1255.74,-75.0 1299.04,-100.0"/>
    <polygon points="1428.94,-75.0 1428.94,-25.0 1385.64,0.0 1342.34,-25.0 1342.34,-75.0 1385.64,-100.0"/>
    <polygon points="1515.54,-75.0 1515.54,-25.0 1472.24,0.0 1428.94,-25.0 1428.94,-75.0 1472.24,-100.0"/>
    <polygon points="1602.15,-75.0 1602.15,-25.0 1558.85,0.0 1515.54,-25.0 1515.54,-75.0 1558.85,-100.0"/>
    <polygon points="1688.75,-75.0 1688.75,-25.0 1645.45,0.0 1602.15,-25.0 1602.15,-75.0 1645.45,-100.0"/>
    <polygon points="1775.35,-75.0 1775.35,-25.0 1732.05,0.0 1688.75,-25.0 1688.75,-75.0 1732.05,-100.0"/>
    <polygon points="0.0,0.0 0.0,50.0 -43.3,75.0 -86.6,50.0 -86.6,-0.0 -43.3,-25.0"/>
    <polygon points="86.6,0.0 86.6,50.0 43.3,75.0 -0.0,50.0 0.0,-0.0 43.3,-25.0"/>
    <polygon points="173.21,0.0 173.21,50.0 129.9,75.0 86.6,50.0 86.6,-0.0 129.9,-25.0"/>
    <polygon points="259.81,0.0 259.81,50.0 216.51,75.0 173.21,50.0 173.21,-0.0 216.51,-25.0"/>
    <polygon points="346.41,0.0 346.41,50.0 303.11,75.0 259.81,50.0 259.81,-0.0 303.11,-25.0"/>
    <polygon points="433.01,0.0 433.01,50.0 389.71,75.0 346.41,50.0 346.41,-0.0 389.71,-25.0"/>
    <polygon points="519.62,0.0 519.62,50.0 476.31,75.0 433.01,50.0 433.01,-0.0 476.31,-25.0"/>
    <polygon points="606.22,0.0 606.22,50.0 562.92,75.0 519.62,50.0 519.62,-0.0 562.92,-25.0"/>
    <polygon points="692.82,0.0 692.82,50.0 649.52,75.0 606.22,50.0 606.22,-0.0 649.52,-25.0"/>
    <polygon points="779.42,0.0 779.42,50.0 736.12,75.0 692.82,50.0 692.82,-0.0 736.12,-25.0"/>
    <polygon points="866.03,0.0 866.03,50.0 822.72,75.0 779.42,50.0 779.42,-0.0 822.72,-25.0"/>
    <polygon points="952.63,0.0 952.63,50.0 909.33,75.0 866.03,50.0 866.03,-0.0 909.33,-25.0"/>
    <polygon points="1039.23,0.0 1039.23,50.0 995.93,75.0 952.63,50.0 952.63,-0.0 995.93,-25.0"/>
    <polygon points="1125.83,0.0 1125.83,50.0 1082.53,75.0 1039.23,50.0 1039.23,-0.0 1082.53,-25.0"/>
    <polygon points="1212.44,0.0 1212.44,50.0 1169.13,75.0 1125.83,50.0 1125.83,-0.0 1169.13,-25.0"/>
    <polygon points="1299.04,0.0 1299.04,50.0 1255.74,75.0 1212.44,50.0 1212.44,-0.0 1255.74,-25.0"/>
    <polygon points="1385.64,0.0 1385.64,50.0 1342.34,75.0 1299.04,50.0 1299.04,-0.0 1342.34,-25.0"/>
    <polygon points="1472.24,0.0 1472.24,50.0 1428.94,75.0 1385.64,50.0 1385.64,-0.0 1428.94,-25.0"/>
    <polygon points="1558.85,0.0 1558.85,50.0 1515.54,75.0 1472.24,50.0 1472.24,-0.0 1515.54,-25.0"/>
    <polygon points="1645.45,0.0 1645.45,50.0 1602.15,75.0 1558.85,50.0 1558.85,-0.0 1602.15,-25.0"/>
    <polygon points="1732.05,0.0 1732.05,50.0 1688.75,75.0 1645.45,50.0 1645.45,-0.0 1688.75,-25.0"/>
    <polygon points="-43.3,75.0 -43.3,125.0 -86.6,150.0 -129.9,125.0 -129.9,75.0 -86.6,50.0"/>
    <polygon points="43.3,75.0 43.3,125.0 0.0,150.0 -43.3,125.0 -43.3,75.0 -0.0,50.0"/>
    <polygon points="129.9,75.0 129.9,125.0 86.6,150.0 43.3,125.0 43.3,75.0 86.6,50.0"/>
    <polygon points="216.51,75.0 216.51,125.0 173.21,150.0 129.9,125.0 129.9,75.0 173.21,50.0"/>
    <polygon points="303.11,75.0 303.11,125.0 259.81,150.0 216.51,125.0 216.51,75.0 259.81,50.0"/>
    <polygon points="389.71,75.0 389.71,125.0 346.41,150.0 303.11,125.0 303.11,75.0 346.41,50.0"/>
    <polygon points="476.31,75.0 476.31,125.0 433.01,150.0 389.71,125.0 389.71,75.0 433.01,50.0"/>
    <polygon points="562.92,75.0 562.92,125.0 519.62,150.0 476.31,125.0 476.31,75.0 519.62,50.0"/>
    <polygon points="649.52,75.0 649.52,125.0 606.22,150.0 562.92,125.0 562.92,75.0 606.22,50.0"/>
    <polygon points="736.12,75.0 736.12,125.0 692.82,150.0 649.52,125.0 649.52,75.0 692.82,50.0"/>
    <polygon points="822.72,75.0 822.72,125.0 779.42,150.0 736.12,125.0 736.12,75.0 779.42,50.0"/>
    <polygon points="909.33,75.0 909.33,125.0 866.03,150.0 822.72,125.0 822.72,75.0 866.03,50.0"/>
    <polygon points="995.93,75.0 995.93,125.0 952.63,150.0 909.33,125.0 909.33,75.0 952.63,50.0"/>
    <polygon points="1082.53,75.0 1082.53,125.0 1039.23,150.0 995.93,125.0 995.93,75.0 1039.23,50.0"/>
    <polygon points="1169.13,75.0 1169.13,125.0 1125.83,150.0 1082.53,125.0 1082.53,75.0 1125.83,50.0"/>
    <polygon points="1255.74,75.0 1255.74,125.0 1212.44,150.0 1169.13,125.0 1169.13,75.0 1212.44,50.0"/>
    <polygon points="1342.34,75.0 1342.34,125.0 1299.04,150.0 1255.74,125.0 1255.74,75.0 1299.04,50.0"/>
    <polygon points="1428.94,75.0 1428.94,125.0 1385.64,150.0 1342.34,125.0 1342.34,75.0 1385.64,50.0"/>
    <polygon points="1515.54,75.0 1515.54,125.0 1472.24,150.0 1428.94,125.0 1428.94,75.0 1472.24,50.0"/>
    <polygon points="1602.15,75.0 1602.15,125.0 1558.85,150.0 1515.54,125.0 1515.54,75.0 1558.85,50.0"/>
    <polygon points="1688.75,75.0 1688.75,125.0 1645.45,150.0 1602.15,125.0 1602.15,75.0 1645.45,50.0"/>
    <polygon points="1775.35,75.0 1775.35,125.0 1732.05,150.0 1688.75,125.0 1688.75,75.0 1732.05,50.0"/>
    <polygon points="0.0,150.0 0.0,200.0 -43.3,225.0 -86.6,200.0 -86.6,150.0 -43.3,125.0"/>
    <polygon points="86.6,150.0 86.6,200.0 43.3,225.0 -0.0,200.0 0.0,150.0 43.3,125.0"/>
    <polygon points="173.21,150.0 173.21,200.0 129.9,225.0 86.6,200.0 86.6,150.0 129.9,125.0"/>
    <polygon points="259.81,150.0 259.81,200.0 216.51,225.0 173.21,200.0 173.21,150.0 216.51,125.0"/>
    <polygon points="346.41,150.0 346.41,200.0 303.11,225.0 259.81,200.0 259.81,150.0 303.11,125.0"/>
    <polygon points="433.01,150.0 433.01,200.0 389.71,225.0 346.41,200.0 346.41,150.0 389.71,125.0"/>
    <polygon points="519.62,150.0 519.62,200.0 476.31,225.0 433.01,200.0 433.01,150.0 476.31,125.0"/>
    <polygon points="606.22,150.0 606.22,200.0 562.92,225.0 519.62,200.0 519.62,150.0 562.92,125.0"/>
    <polygon points="692.82,150.0 692.82,200.0 649.52,225.0 606.22,200.0 606.22,150.0 649.52,125.0"/>
    <polygon points="779.42,150.0 779.42,200.0 736.12,225.0 692.82,200.0 692.82,150.0 736.12,125.0"/>
    <polygon points="866.03,150.0 866.03,200.0 822.72,225.0 779.42,200.0 779.42,150.0 822.72,125.0"/>
    <polygon points="952.63,150.0 952.63,200.0 909.33,225.0 866.03,200.0 866.03,150.0 909.33,125.0"/>
    <polygon points="1039.23,150.0 1039.23,200.0 995.93,225.0 952.63,200.0 952.63,150.0 995.93,125.0"/>
    <polygon points="1125.83,150.0 1125.83,200.0 1082.53,225.0 1039.23,200.0 1039.23,150.0 1082.53,125.0"/>
    <polygon points="1212.44,150.0 1212.44,200.0 1169.13,225.0 1125.83,200.0 1125.83,150.0 1169.13,125.0"/>
    <polygon points="1299.04,150.0 1299.04,200.0 1255.74,225.0 1212.44,200.0 1212.44,150.0 1255.74,125.0"/>
    <polygon points="1385.64,150.0 1385.64,200.0 1342.34,225.0 1299.04,200.0 1299.04,150.0 1342.34,125.0"/>
    <polygon points="1472.24,150.0 1472.24,200.0 1428.94,225.0 1385.64,200.0 1385.64,150.0 1428.94,125.0"/>
    <polygon points="1558.85,150.0 1558.85,200.0 1515.54,225.0 1472.24,200.0 1472.24,150.0 1515.54,125.0"/>
    <polygon points="1645.45,150.0 1645.45,200.0 1602.15,225.0 1558.85,200.0 1558.85,150.0 1602.15,125.0"/>
    <polygon points="1732.05,150.0 1732.05,200.0 1688.75,225.0 1645.45,200.0 1645.45,150.0 1688.75,125.0"/>
    <polygon points="-43.3,225.0 -43.3,275.0 -86.6,300.0 -129.9,275.0 -129.9,225.0 -86.6,200.0"/>
    <polygon points="43.3,225.0 43.3,275.0 0.0,300.0 -43.3,275.0 -43.3,225.0 -0.0,200.0"/>
    <polygon points="129.9,225.0 129.9,275.0 86.6,300.0 43.3,275.0 43.3,225.0 86.6,200.0"/>
    <polygon points="216.51,225.0 216.51,275.0 173.21,300.0 129.9,275.0 129.9,225.0 173.21,200.0"/>
    <polygon points="303.11,225.0 303.11,275.0 259.81,300.0 216.51,275.0 216.51,225.0 259.81,200.0"/>
    <polygon points="389.71,225.0 389.71,275.0 346.41,300.0 303.11,275.0 303.11,225.0 346.41,200.0"/>
    <polygon points="476.31,225.0 476.31,275.0 433.01,300.0 389.71,275.0 389.71,225.0 433.01,200.0"/>
    <polygon points="562.92,225.0 562.92,275.0 519.62,300.0 476.31,275.0 476.31,225.0 519.62,200.0"/>
    <polygon points="649.52,225.0 649.52,275.0 606.22,300.0 562.92,275.0 562.92,225.0 606.22,200.0"/>
    <polygon points="736.12,225.0 736.12,275.0 692.82,300.0 649.52,275.0 649.52,225.0 692.82,200.0"/>
    <polygon points="822.72,225.0 822.72,275.0 779.42,300.0 736.12,275.0 736.12,225.0 779.42,200.0"/>
    <polygon points="909.33,225.0 909.33,275.0 866.03,300.0 822.72,275.0 822.72,225.0 866.03,200.0"/>
    <polygon points="995.93,225.0 995.93,275.0 952.63,300.0 909.33,275.0 909.33,225.0 952.63,200.0"/>
    <polygon points="1082.53,225.0 1082.53,275.0 1039.23,300.0 995.93,275.0 995.93,225.0 1039.23,200.0"/>
    <polygon points="1169.13,225.0 1169.13,275.0 1125.83,300.0 1082.53,275.0 1082.53,225.0 1125.83,200.0"/>
    <polygon points="1255.74,225.0 1255.74,275.0 1212.44,300.0 1169.13,275.0 1169.13,225.0 1212.44,200.0"/>
    <polygon points="1342.34,225.0 1342.34,275.0 1299.04,300.0 1255.74,275.0 1255.74,225.0 1299.04,200.0"/>
    <polygon points="1428.94,225.0 1428.94,275.0 1385.64,300.0 1342.34,275.0 1342.34,225.0 1385.64,200.0"/>
    <polygon points="1515.54,225.0 1515.54,275.0 1472.24,300.0 1428.94,275.0 1428.94,225.0 1472.24,200.0"/>
    <polygon points="1602.15,225.0 1602.15,275.0 1558.85,300.0 1515.54,275.0 1515.54,225.0 1558.85,200.0"/>
    <polygon points="1688.75,225.0 1688.75,275.0 1645.45,300.0 1602.15,275.0 1602.15,225.0 1645.45,200.0"/>
    <polygon points="1775.35,225.0 1775.35,275.0 1732.05,300.0 1688.75,275.0 1688.75,225.0 1732.05,200.0"/>
    <polygon points="0.0,300.0 0.0,350.0 -43.3,375.0 -86.6,350.0 -86.6,300.0 -43.3,275.0"/>
    <polygon points="86.6,300.0 86.6,350.0 43.3,375.0 -0.0,350.0 0.0,300.0 43.3,275.0"/>
    <polygon points="173.21,300.0 173.21,350.0 129.9,375.0 86.6,350.0 86.6,300.0 129.9,275.0"/>
    <polygon points="259.81,300.0 259.81,350.0 216.51,375.0 173.21,350.0 173.21,300.0 216.51,275.0"/>
    <polygon points="346.41,300.0 346.41,350.0 303.11,375.0 259.81,350.0 259.81,300.0 303.11,275.0"/>
    <polygon points="433.01,300.0 433.01,350.0 389.71,375.0 346.41,350.0 346.41,300.0 389.71,275.0"/>
    <polygon points="519.62,300.0 519.62,350.0 476.31,375.0 433.01,350.0 433.01,300.0 476.31,275.0"/>
    <polygon points="606.22,300.0 606.22,350.0 562.92,375.0 519.62,350.0 519.62,300.0 562.92,275.0"/>
    <polygon points="692.82,300.0 692.82,350.0 649.52,375.0 606.22,350.0 606.22,300.0 649.52,275.0"/>
    <polygon points="779.42,300.0 779.42,350.0 736.12,375.0 692.82,350.0 692.82,300.0 736.12,275.0"/>
    <polygon points="866.03,300.0 866.03,350.0 822.72,375.0 779.42,350.0 779.42,300.0 822.72,275.0"/>
    <polygon points="952.63,300.0 952.63,350.0 909.33,375.0 866.03,350.0 866.03,300.0 909.33,275.0"/>
    <polygon points="1039.23,300.0 1039.23,350.0 995.93,375.0 952.63,350.0 952.63,300.0 995.93,275.0"/>
    <polygon points="1125.83,300.0 1125.83,350.0 1082.53,375.0 1039.23,350.0 1039.23,300.0 1082.53,275.0"/>
    <polygon points="1212.44,300.0 1212.44,350.0 1169.13,375.0 1125.83,350.0 1125.83,300.0 1169.13,275.0"/>
    <polygon points="1299.04,300.0 1299.04,350.0 1255.74,375.0 1212.44,350.0 1212.44,300.0 1255.74,275.0"/>
    <polygon points="1385.64,300.0 1385.64,350.0 1342.34,375.0 1299.04,350.0 1299.04,300.0 1342.34,275.0"/>
    <polygon points="1472.24,300.0 1472.24,350.0 1428.94,375.0 1385.64,350.0 1385.64,300.0 1428.94,275.0"/>
    <polygon points="1558.85,300.0 1558.85,350.0 1515.54,375.0 1472.24,350.0 1472.24,300.0 1515.54,275.0"/>
    <polygon points="1645.45,300.0 1645.45,350.0 1602.15,375.0 1558.85,350.0 1558.85,300.0 1602.15,275.0"/>
    <polygon points="1732.05,300.0 1732.05,350.0 1688.75,375.0 1645.45,350.0 1645.45,300.0 1688.75,275.0"/>
    <polygon points="-43.3,375.0 -43.3,425.0 -86.6,450.0 -129.9,425.0 -129.9,375.0 -86.6,350.0"/>
    <polygon points="43.3,375.0 43.3,425.0 0.0,450.0 -43.3,425.0 -43.3,375.0 -0.0,350.0"/>
    <polygon points="129.9,375.0 129.9,425.0 86.6,450.0 43.3,425.0 43.3,375.0 86.6,350.0"/>
    <polygon points="216.51,375.0 216.51,425.0 173.21,450.0 129.9,425.0 129.9,375.0 173.21,350.0"/>
    <polygon points="303.11,375.0 303.11,425.0 259.81,450.0 216.51,425.0 216.51,375.0 259.81,350.0"/>
    <polygon points="389.71,375.0 389.71,425.0 346.41,450.0 303.11,425.0 303.11,375.0 346.41,350.0"/>
    <polygon points="476.31,375.0 476.31,425.0 433.01,450.0 389.71,425.0 389.71,375.0 433.01,350.0"/>
    <polygon points="562.92,375.0 562.92,425.0 519.62,450.0 476.31,425.0 476.31,375.0 519.62,350.0"/>
    <polygon points="649.52,375.0 649.52,425.0 606.22,450.0 562.92,425.0 562.92,375.0 606.22,350.0"/>
    <polygon points="736.12,375.0 736.12,425.0 692.82,450.0 649.52,425.0 649.52,375.0 692.82,350.0"/>
    <polygon points="822.72,375.0 822.72,425.0 779.42,450.0 736.12,425.0 736.12,375.0 779.42,350.0"/>
    <polygon points="909.33,375.0 909.33,425.0 866.03,450.0 822.72,425.0 822.72,375.0 866.03,350.0"/>
    <polygon points="995.93,375.0 995.93,425.0 952.63,450.0 909.33,425.0 909.33,375.0 952.63,350.0"/>
    <polygon points="1082.53,375.0 1082.53,425.0 1039.23,450.0 995.93,425.0 995.93,375.0 1039.23,350.0"/>
    <polygon points="1169.13,375.0 1169.13,425.0 1125.83,450.0 1082.53,425.0 1082.53,375.0 1125.83,350.0"/>
    <polygon points="1255.74,375.0 1255.74,425.0 1212.44,450.0 1169.13,425.0 1169.13,375.0 1212.44,350.0"/>
    <polygon points="1342.34,375.0 1342.34,425.0 1299.04,450.0 1255.74,425.0 1255.74,375.0 1299.04,350.0"/>
    <polygon points="1428.94,375.0 1428.94,425.0 1385.64,450.0 1342.34,425.0 1342.34,375.0 1385.64,350.0"/>
    <polygon points="1515.54,375.0 1515.54,425.0 1472.24,450.0 1428.94,425.0 1428.94,375.0 1472.24,350.0"/>
    <polygon points="1602.15,375.0 1602.15,425.0 1558.85,450.0 1515.54,425.0 1515.54,375.0 1558.85,350.0"/>
    <polygon points="1688.75,375.0 1688.75,425.0 1645.45,450.0 1602.15,425.0 1602.15,375.0 1645.45,350.0"/>
    <polygon points="1775.35,375.0 1775.35,425.0 1732.05,450.0 1688.75,425.0 1688.75,375.0 1732.05,350.0"/>
    <polygon points="0.0,450.0 0.0,500.0 -43.3,525.0 -86.6,500.0 -86.6,450.0 -43.3,425.0"/>
    <polygon points="86.6,450.0 86.6,500.0 43.3,525.0 -0.0,500.0 0.0,450.0 43.3,425.0"/>
    <polygon points="173.21,450.0 173.21,500.0 129.9,525.0 86.6,500.0 86.6,450.0 129.9,425.0"/>
    <polygon points="259.81,450.0 259.81,500.0 216.51,525.0 173.21,500.0 173.21,450.0 216.51,425.0"/>
    <polygon points="346.41,450.0 346.41,500.0 303.11,525.0 259.81,500.0 259.81,450.0 303.11,425.0"/>
    <polygon points="433.01,450.0 433.01,500.0 389.71,525.0 346.41,500.0 346.41,450.0 389.71,425.0"/>
    <polygon points="519.62,450.0 519.62,500.0 476.31,525.0 433.01,500.0 433.01,450.0 476.31,425.0"/>
    <polygon points="606.22,450.0 606.22,500.0 562.92,525.0 519.62,500.0 519.62,450.0 562.92,425.0"/>
    <polygon points="692.82,450.0 692.82,500.0 649.52,525.0 606.22,500.0 606.22,450.0 649.52,425.0"/>
    <polygon points="779.42,450.0 779.42,500.0 736.12,525.0 692.82,500.0 692.82,450.0 736.12,425.0"/>
    <polygon points="866.03,450.0 866.03,500.0 822.72,525.0 779.42,500.0 779.42,450.0 822.72,425.0"/>
    <polygon points="952.63,450.0 952.63,500.0 909.33,525.0 866.03,500.0 866.03,450.0 909.33,425.0"/>
    <polygon points="1039.23,450.0 1039.23,500.0 995.93,525.0 952.63,500.0 952.63,450.0 995.93,425.0"/>
    <polygon points="1125.83,450.0 1125.83,500.0 1082.53,525.0 1039.23,500.0 1039.23,450.0 1082.53,425.0"/>
    <polygon points="1212.44,450.0 1212.44,500.0 1169.13,525.0 1125.83,500.0 1125.83,450.0 1169.13,425.0"/>
    <polygon points="1299.04,450.0 1299.04,500.0 1255.74,525.0 1212.44,500.0 1212.44,450.0 1255.74,425.0"/>
    <polygon points="1385.64,450.0 1385.64,500.0 1342.34,525.0 1299.04,500.0 1299.04,450.0 1342.34,425.0"/>
    <polygon points="1472.24,450.0 1472.24,500.0 1428.94,525.0 1385.64,500.0 1385.64,450.0 1428.94,425.0"/>
    <polygon points="1558.85,450.0 1558.85,500.0 1515.54,525.0 1472.24,500.0 1472.24,450.0 1515.54,425.0"/>
    <polygon points="1645.45,450.0 1645.45,500.0 1602.15,525.0 1558.85,500.0 1558.85,450.0 1602.15,425.0"/>
    <polygon points="1732.05,450.0 1732.05,500.0 1688.75,525.0 1645.45,500.0 1645.45,450.0 1688.75,425.0"/>
    <polygon points="-43.3,525.0 -43.3,575.0 -86.6,600.0 -129.9,575.0 -129.9,525.0 -86.6,500.0"/>
    <polygon points="43.3,525.0 43.3,575.0 0.0,600.0 -43.3,575.0 -43.3,525.0 -0.0,500.0"/>
    <polygon points="129.9,525.0 129.9,575.0 86.6,600.0 43.3,575.0 43.3,525.0 86.6,500.0"/>
    <polygon points="216.51,525.0 216.51,575.0 173.21,600.0 129.9,575.0 129.9,525.0 173.21,500.0"/>
    <polygon points="303.11,525.0 303.11,575.0 259.81,600.0 216.51,575.0 216.51,525.0 259.81,500.0"/>
    <polygon points="389.71,525.0 389.71,575.0 346.41,600.0 303.11,575.0 303.11,525.0 346.41,500.0"/>
    <polygon points="476.31,525.0 476.31,575.0 433.01,600.0 389.71,575.0 389.71,525.0 433.01,500.0"/>
    <polygon points="562.92,525.0 562.92,575.0 519.62,600.0 476.31,575.0 476.31,525.0 519.62,500.0"/>
    <polygon points="649.52,525.0 649.52,575.0 606.22,600.0 562.92,575.0 562.92,525.0 606.22,500.0"/>
    <polygon points="736.12,525.0 736.12,575.0 692.82,600.0 649.52,575.0 649.52,525.0 692.82,500.0"/>
    <polygon points="822.72,525.0 822.72,575.0 779.42,600.0 736.12,575.0 736.12,525.0 779.42,500.0"/>
    <polygon points="909.33,525.0 909.33,575.0 866.03,600.0 822.72,575.0 822.72,525.0 866.03,500.0"/>
    <polygon points="995.93,525.0 995.93,575.0 952.63,600.0 909.33,575.0 909.33,525.0 952.63,500.0"/>
    <polygon points="1082.53,525.0 1082.53,575.0 1039.23,600.0 995.93,575.0 995.93,525.0 1039.23,500.0"/>
    <polygon points="1169.13,525.0 1169.13,575.0 1125.83,600.0 1082.53,575.0 1082.53,525.0 1125.83,500.0"/>
    <polygon points="1255.74,525.0 1255.74,575.0 1212.44,600.0 1169.13,575.0 1169.13,525.0 1212.44,500.0"/>
    <polygon points="1342.34,525.0 1342.34,575.0 1299.04,600.0 1255.74,575.0 1255.74,525.0 1299.04,500.0"/>
    <polygon points="1428.94,525.0 1428.94,575.0 1385.64,600.0 1342.34,575.0 1342.34,525.0 1385.64,500.0"/>
    <polygon points="1515.54,525.0 1515.54,575.0 1472.24,600.0 1428.94,575.0 1428.94,525.0 1472.24,500.0"/>
    <polygon points="1602.15,525.0 1602.15,575.0 1558.85,600.0 1515.54,575.0 1515.54,525.0 1558.85,500.0"/>
    <polygon points="1688.75,525.0 1688.75,575.0 1645.45,600.0 1602.15,575.0 1602.15,525.0 1645.45,500.0"/>
    <polygon points="1775.35,525.0 1775.35,575.0 1732.05,600.0 1688.75,575.0 1688.75,525.0 1732.05,500.0"/>
    <polygon points="0.0,600.0 0.0,650.0 -43.3,675.0 -86.6,650.0 -86.6,600.0 -43.3,575.0"/>
    <polygon points="86.6,600.0 86.6,650.0 43.3,675.0 -0.0,650.0 0.0,600.0 43.3,575.0"/>
    <polygon points="173.21,600.0 173.21,650.0 129.9,675.0 86.6,650.0 86.6,600.0 129.9,575.0"/>
    <polygon points="259.81,600.0 259.81,650.0 216.51,675.0 173.21,650.0 173.21,600.0 216.51,575.0"/>
    <polygon points="346.41,600.0 346.41,650.0 303.11,675.0 259.81,650.0 259.81,600.0 303.11,575.0"/>
    <polygon points="433.01,600.0 433.01,650.0 389.71,675.0 346.41,650.0 346.41,600.0 389.71,575.0"/>
    <polygon points="519.62,600.0 519.62,650.0 476.31,675.0 433.01,650.0 433.01,600.0 476.31,575.0"/>
    <polygon points="606.22,600.0 606.22,650.0 562.92,675.0 519.62,650.0 519.62,600.0 562.92,575.0"/>
    <polygon points="692.82,600.0 692.82,650.0 649.52,675.0 606.22,650.0 606.22,600.0 649.52,575.0"/>
    <polygon points="779.42,600.0 779.42,650.0 736.12,675.0 692.82,650.0 692.82,600.0 736.12,575.0"/>
    <polygon points="866.03,600.0 866.03,650.0 822.72,675.0 779.42,650.0 779.42,600.0 822.72,575.0"/>
    <polygon points="952.63,600.0 952.63,650.0 909.33,675.0 866.03,650.0 866.03,600.0 909.33,575.0"/>
    <polygon points="1039.23,600.0 1039.23,650.0 995.93,675.0 952.63,650.0 952.63,600.0 995.93,575.0"/>
    <polygon points="1125.83,600.0 1125.83,650.0 1082.53,675.0 1039.23,650.0 1039.23,600.0 1082.53,575.0"/>
    <polygon points="1212.44,600.0 1212.44,650.0 1169.13,675.0 1125.83,650.0 1125.83,600.0 1169.13,575.0"/>
    <polygon points="1299.04,600.0 1299.04,650.0 1255.74,675.0 1212.44,650.0 1212.44,600.0 1255.74,575.0"/>
    <polygon points="1385.64,600.0 1385.64,650.0 1342.34,675.0 1299.04,650.0 1299.04,600.0 1342.34,575.0"/>
    <polygon points="1472.24,600.0 1472.24,650.0 1428.94,675.0 1385.64,650.0 1385.64,600.0 1428.94,575.0"/>
    <polygon points="1558.85,600.0 1558.85,650.0 1515.54,675.0 1472.24,650.0 1472.24,600.0 1515.54,575.0"/>
    <polygon points="1645.45,600.0 1645.45,650.0 1602.15,675.0 1558.85,650.0 1558.85,600.0 1602.15,575.0"/>
    <polygon points="1732.05,600.0 1732.05,650.0 1688.75,675.0 1645.45,650.0 1645.45,600.0 1688.75,575.0"/>
    <polygon points="-43.3,675.0 -43.3,725.0 -86.6,750.0 -129.9,725.0 -129.9,675.0 -86.6,650.0"/>
    <polygon points="43.3,675.0 43.3,725.0 0.0,750.0 -43.3,725.0 -43.3,675.0 -0.0,650.0"/>
    <polygon points="129.9,675.0 129.9,725.0 86.6,750.0 43.3,725.0 43.3,675.0 86.6,650.0"/>
    <polygon points="216.51,675.0 216.51,725.0 173.21,750.0 129.9,725.0 129.9,675.0 173.21,650.0"/>
    <polygon points="303.11,675.0 303.11,725.0 259.81,750.0 216.51,725.0 216.51,675.0 259.81,650.0"/>
    <polygon points="389.71,675.0 389.71,725.0 346.41,750.0 303.11,725.0 303.11,675.0 346.41,650.0"/>
    <polygon points="476.31,675.0 476.31,725.0 433.01,750.0 389.71,725.0 389.71,675.0 433.01,650.0"/>
    <polygon points="562.92,675.0 562.92,725.0 519.62,750.0 476.31,725.0 476.31,675.0 519.62,650.0"/>
    <polygon points="649.52,675.0 649.52,725.0 606.22,750.0 562.92,725.0 562.92,675.0 606.22,650.0"/>
    <polygon points="736.12,675.0 736.12,725.0 692.82,750.0 649.52,725.0 649.52,675.0 692.82,650.0"/>
    <polygon points="822.72,675.0 822.72,725.0 779.42,750.0 736.12,725.0 736.12,675.0 779.42,650.0"/>
    <polygon points="909.33,675.0 909.33,725.0 866.03,750.0 822.72,725.0 822.72,675.0 866.03,650.0"/>
    <polygon points="995.93,675.0 995.93,725.0 952.63,750.0 909.33,725.0 909.33,675.0 952.63,650.0"/>
    <polygon points="1082.53,675.0 1082.53,725.0 1039.23,750.0 995.93,725.0 995.93,675.0 1039.23,650.0"/>
    <polygon points="1169.13,675.0 1169.13,725.0 1125.83,750.0 1082.53,725.0 1082.53,675.0 1125.83,650.0"/>
    <polygon points="1255.74,675.0 1255.74,725.0 1212.44,750.0 1169.13,725.0 1169.13,675.0 1212.44,650.0"/>
    <polygon points="1342.34,675.0 1342.34,725.0 1299.04,750.0 1255.74,725.0 1255.74,675.0 1299.04,650.0"/>
    <polygon points="1428.94,675.0 1428.94,725.0 1385.64,750.0 1342.34,725.0 1342.34,675.0 1385.64,650.0"/>
    <polygon points="1515.54,675.0 1515.54,725.0 1472.24,750.0 1428.94,725.0 1428.94,675.0 1472.24,650.0"/>
    <polygon points="1602.15,675.0 1602.15,725.0 1558.85,750.0 1515.54,725.0 1515.54,675.0 1558.85,650.0"/>
    <polygon points="1688.75,675.0 1688.75,725.0 1645.45,750.0 1602.15,725.0 1602.15,675.0 1645.45,650.0"/>
    <polygon points="1775.35,675.0 1775.35,725.0 1732.05,750.0 1688.75,725.0 1688.75,675.0 1732.05,650.0"/>
    <polygon points="0.0,750.0 0.0,800.0 -43.3,825.0 -86.6,800.0 -86.6,750.0 -43.3,725.0"/>
    <polygon points="86.6,750.0 86.6,800.0 43.3,825.0 -0.0,800.0 0.0,750.0 43.3,725.0"/>
    <polygon points="173.21,750.0 173.21,800.0 129.9,825.0 86.6,800.0 86.6,750.0 129.9,725.0"/>
    <polygon points="259.81,750.0 259.81,800.0 216.51,825.0 173.21,800.0 173.21,750.0 216.51,725.0"/>
    <polygon points="346.41,750.0 346.41,800.0 303.11,825.0 259.81,800.0 259.81,750.0 303.11,725.0"/>
    <polygon points="433.01,750.0 433.01,800.0 389.71,825.0 346.41,800.0 346.41,750.0 389.71,725.0"/>
    <polygon points="519.62,750.0 519.62,800.0 476.31,825.0 433.01,800.0 433.01,750.0 476.31,725.0"/>
    <polygon points="606.22,750.0 606.22,800.0 562.92,825.0 519.62,800.0 519.62,750.0 562.92,725.0"/>
    <polygon points="692.82,750.0 692.82,800.0 649.52,825.0 606.22,800.0 606.22,750.0 649.52,725.0"/>
    <polygon points="779.42,750.0 779.42,800.0 736.12,825.0 692.82,800.0 692.82,750.0 736.12,725.0"/>
    <polygon points="866.03,750.0 866.03,800.0 822.72,825.0 779.42,800.0 779.42,750.0 822.72,725.0"/>
    <polygon points="952.63,750.0 952.63,800.0 909.33,825.0 866.03,800.0 866.03,750.0 909.33,725.0"/>
    <polygon points="1039.23,750.0 1039.23,800.0 995.93,825.0 952.63,800.0 952.63,750.0 995.93,725.0"/>
    <polygon points="1125.83,750.0 1125.83,800.0 1082.53,825.0 1039.23,800.0 1039.23,750.0 1082.53,725.0"/>
    <polygon points="1212.44,750.0 1212.44,800.0 1169.13,825.0 1125.83,800.0 1125.83,750.0 1169.13,725.0"/>
    <polygon points="1299.04,750.0 1299.04,800.0 1255.74,825.0 1212.44,800.0 1212.44,750.0 1255.74,725.0"/>
    <polygon points="1385.64,750.0 1385.64,800.0 1342.34,825.0 1299.04,800.0 1299.04,750.0 1342.34,725.0"/>
    <polygon points="1472.24,750.0 1472.24,800.0 1428.94,825.0 1385.64,800.0 1385.64,750.0 1428.94,725.0"/>
    <polygon points="1558.85,750.0 1558.85,800.0 1515.54,825.0 1472.24,800.0 1472.24,750.0 1515.54,725.0"/>
    <polygon points="1645.45,750.0 1645.45,800.0 1602.15,825.0 1558.85,800.0 1558.85,750.0 1602.15,725.0"/>
    <polygon points="1732.05,750.0 1732.05,800.0 1688.75,825.0 1645.45,800.0 1645.45,750.0 1688.75,725.0"/>
    <polygon points="-43.3,825.0 -43.3,875.0 -86.6,900.0 -129.9,875.0 -129.9,825.0 -86.6,800.0"/>
    <polygon points="43.3,825.0 43.3,875.0 0.0,900.0 -43.3,875.0 -43.3,825.0 -0.0,800.0"/>
    <polygon points="129.9,825.0 129.9,875.0 86.6,900.0 43.3,875.0 43.3,825.0 86.6,800.0"/>
    <polygon points="216.51,825.0 216.51,875.0 173.21,900.0 129.9,875.0 129.9,825.0 173.21,800.0"/>
    <polygon points="303.11,825.0 303.11,875.0 259.81,900.0 216.51,875.0 216.51,825.0 259.81,800.0"/>
    <polygon points="389.71,825.0 389.71,875.0 346.41,900.0 303.11,875.0 303.11,825.0 346.41,800.0"/>
    <polygon points="476.31,825.0 476.31,875.0 433.01,900.0 389.71,875.0 389.71,825.0 433.01,800.0"/>
    <polygon points="562.92,825.0 562.92,875.0 519.62,900.0 476.31,875.0 476.31,825.0 519.62,800.0"/>
    <polygon points="649.52,825.0 649.52,875.0 606.22,900.0 562.92,875.0 562.92,825.0 606.22,800.0"/>
    <polygon points="736.12,825.0 736.12,875.0 692.82,900.0 649.52,875.0 649.52,825.0 692.82,800.0"/>
    <polygon points="822.72,825.0 822.72,875.0 779.42,900.0 736.12,875.0 736.12,825.0 779.42,800.0"/>
    <polygon points="909.33,825.0 909.33,875.0 866.03,900.0 822.72,875.0 822.72,825.0 866.03,800.0"/>
    <polygon points="995.93,825.0 995.93,875.0 952.63,900.0 909.33,875.0 909.33,825.0 952.63,800.0"/>
    <polygon points="1082.53,825.0 1082.53,875.0 1039.23,900.0 995.93,875.0 995.93,825.0 1039.23,800.0"/>
    <polygon points="1169.13,825.0 1169.13,875.0 1125.83,900.0 1082.53,875.0 1082.53,825.0 1125.83,800.0"/>
    <polygon points="1255.74,825.0 1255.74,875.0 1212.44,900.0 1169.13,875.0 1169.13,825.0 1212.44,800.0"/>
    <polygon points="1342.34,825.0 1342.34,875.0 1299.04,900.0 1255.74,875.0 1255.74,825.0 1299.04,800.0"/>
    <polygon points="1428.94,825.0 1428.94,875.0 1385.64,900.0 1342.34,875.0 1342.34,825.0 1385.64,800.0"/>
    <polygon points="1515.54,825.0 1515.54,875.0 1472.24,900.0 1428.94,875.0 1428.94,825.0 1472.24,800.0"/>
    <polygon points="1602.15,825.0 1602.15,875.0 1558.85,900.0 1515.54,875.0 1515.54,825.0 1558.85,800.0"/>
    <polygon points="1688.75,825.0 1688.75,875.0 1645.45,900.0 1602.15,875.0 1602.15,825.0 1645.45,800.0"/>
    <polygon points="1775.35,825.0 1775.35,875.0 1732.05,900.0 1688.75,875.0 1688.75,825.0 1732.05,800.0"/>
    <polygon points="0.0,900.0 0.0,950.0 -43.3,975.0 -86.6,950.0 -86.6,900.0 -43.3,875.0"/>
    <polygon points="86.6,900.0 86.6,950.0 43.3,975.0 -0.0,950.0 0.0,900.0 43.3,875.0"/>
    <polygon points="173.21,900.0 173.21,950.0 129.9,975.0 86.6,950.0 86.6,900.0 129.9,875.0"/>
    <polygon points="259.81,900.0 259.81,950.0 216.51,975.0 173.21,950.0 173.21,900.0 216.51,875.0"/>
    <polygon points="346.41,900.0 346.41,950.0 303.11,975.0 259.81,950.0 259.81,900.0 303.11,875.0"/>
    <polygon points="433.01,900.0 433.01,950.0 389.71,975.0 346.41,950.0 346.41,900.0 389.71,875.0"/>
    <polygon points="519.62,900.0 519.62,950.0 476.31,975.0 433.01,950.0 433.01,900.0 476.31,875.0"/>
    <polygon points="606.22,900.0 606.22,950.0 562.92,975.0 519.62,950.0 519.62,900.0 562.92,875.0"/>
    <polygon points="692.82,900.0 692.82,950.0 649.52,975.0 606.22,950.0 606.22,900.0 649.52,875.0"/>
    <polygon points="779.42,900.0 779.42,950.0 736.12,975.0 692.82,950.0 692.82,900.0 736.12,875.0"/>
    <polygon points="866.03,900.0 866.03,950.0 822.72,975.0 779.42,950.0 779.42,900.0 822.72,875.0"/>
    <polygon points="952.63,900.0 952.63,950.0 909.33,975.0 866.03,950.0 866.03,900.0 909.33,875.0"/>
    <polygon points="1039.23,900.0 1039.23,950.0 995.93,975.0 952.63,950.0 952.63,900.0 995.93,875.0"/>
    <polygon points="1125.83,900.0 1125.83,950.0 1082.53,975.0 1039.23,950.0 1039.23,900.0 1082.53,875.0"/>
    <polygon points="1212.44,900.0 1212.44,950.0 1169.13,975.0 1125.83,950.0 1125.83,900.0 1169.13,875.0"/>
    <polygon points="1299.04,900.0 1299.04,950.0 1255.74,975.0 1212.44,950.0 1212.44,900.0 1255.74,875.0"/>
    <polygon points="1385.64,900.0 1385.64,950.0 1342.34,975.0 1299.04,950.0 1299.04,900.0 1342.34,875.0"/>
    <polygon points="1472.24,900.0 1472.24,950.0 1428.94,975.0 1385.64,950.0 1385.64,900.0 1428.94,875.0"/>
    <polygon points="1558.85,900.0 1558.85,950.0 1515.54,975.0 1472.24,950.0 1472.24,900.0 1515.54,875.0"/>
    <polygon points="1645.45,900.0 1645.45,950.0 1602.15,975.0 1558.85,950.0 1558.85,900.0 1602.15,875.0"/>
    <polygon points="1732.05,900.0 1732.05,950.0 1688.75,975.0 1645.45,950.0 1645.45,900.0 1688.75,875.0"/>
    <polygon points="-43.3,975.0 -43.3,1025.0 -86.6,1050.0 -129.9,1025.0 -129.9,975.0 -86.6,950.0"/>
    <polygon points="43.3,975.0 43.3,1025.0 0.0,1050.0 -43.3,1025.0 -43.3,975.0 -0.0,950.0"/>
    <polygon points="129.9,975.0 129.9,1025.0 86.6,1050.0 43.3,1025.0 43.3,975.0 86.6,950.0"/>
    <polygon points="216.51,975.0 216.51,1025.0 173.21,1050.0 129.9,1025.0 129.9,975.0 173.21,950.0"/>
    <polygon points="303.11,975.0 303.11,1025.0 259.81,1050.0 216.51,1025.0 216.51,975.0 259.81,950.0"/>
    <polygon points="389.71,975.0 389.71,1025.0 346.41,1050.0 303.11,1025.0 303.11,975.0 346.41,950.0"/>
    <polygon points="476.31,975.0 476.31,1025.0 433.01,1050.0 389.71,1025.0 389.71,975.0 433.01,950.0"/>
    <polygon points="562.92,975.0 562.92,1025.0 519.62,1050.0 476.31,1025.0 476.31,975.0 519.62,950.0"/>
    <polygon points="649.52,975.0 649.52,1025.0 606.22,1050.0 562.92,1025.0 562.92,975.0 606.22,950.0"/>
    <polygon points="736.12,975.0 736.12,1025.0 692.82,1050.0 649.52,1025.0 649.52,975.0 692.82,950.0"/>
    <polygon points="822.72,975.0 822.72,1025.0 779.42,1050.0 736.12,1025.0 736.12,975.0 779.42,950.0"/>
    <polygon points="909.33,975.0 909.33,1025.0 866.03,1050.0 822.72,1025.0 822.72,975.0 866.03,950.0"/>
    <polygon points="995.93,975.0 995.93,1025.0 952.63,1050.0 909.33,1025.0 909.33,975.0 952.63,950.0"/>
    <polygon points="1082.53,975.0 1082.53,1025.0 1039.23,1050.0 995.93,1025.0 995.93,975.0 1039.23,950.0"/>
    <polygon points="1169.13,975.0 1169.13,1025.0 1125.83,1050.0 1082.53,1025.0 1082.53,975.0 1125.83,950.0"/>
    <polygon points="1255.74,975.0 1255.74,1025.0 1212.44,1050.0 1169.13,1025.0 1169.13,975.0 1212.44,950.0"/>
    <polygon points="1342.34,975.0 1342.34,1025.0 1299.04,1050.0 1255.74,1025.0 1255.74,975.0 1299.04,950.0"/>
    <polygon points="1428.94,975.0 1428.94,1025.0 1385.64,1050.0 1342.34,1025.0 1342.34,975.0 1385.64,950.0"/>
    <polygon points="1515.54,975.0 1515.54,1025.0 1472.24,1050.0 1428.94,1025.0 1428.94,975.0 1472.24,950.0"/>
    <polygon points="1602.15,975.0 1602.15,1025.0 1558.85,1050.0 1515.54,1025.0 1515.54,975.0 1558.85,950.0"/>
    <polygon points="1688.75,975.0 1688.75,1025.0 1645.45,1050.0 1602.15,1025.0 1602.15,975.0 1645.45,950.0"/>
    <polygon points="1775.35,975.0 1775.35,1025.0 1732.05,1050.0 1688.75,1025.0 1688.75,975.0 1732.05,950.0"/>
  </g>
  <g fill="#e6e7e8" fill-opacity="0.4">
    <circle cx="1602.15" cy="975.0" r="3"/>
    <circle cx="173.21" cy="50.0" r="3"/>
    <circle cx="-86.6" cy="600.0" r="3"/>
    <circle cx="606.22" cy="600.0" r="3"/>
    <circle cx="519.62" cy="650.0" r="3"/>
    <circle cx="476.31" cy="225.0" r="3"/>
    <circle cx="216.51" cy="975.0" r="3"/>
    <circle cx="129.9" cy="525.0" r="3"/>
    <circle cx="1732.05" cy="200.0" r="3"/>
    <circle cx="1342.34" cy="975.0" r="3"/>
    <circle cx="86.6" cy="600.0" r="3"/>
    <circle cx="1472.24" cy="800.0" r="3"/>
    <circle cx="1039.23" cy="-100.0" r="3"/>
    <circle cx="-43.3" cy="-75.0" r="3"/>
    <circle cx="-86.6" cy="950.0" r="3"/>
    <circle cx="86.6" cy="1050.0" r="3"/>
    <circle cx="433.01" cy="1050.0" r="3"/>
    <circle cx="476.31" cy="975.0" r="3"/>
    <circle cx="1255.74" cy="275.0" r="3"/>
    <circle cx="1515.54" cy="525.0" r="3"/>
    <circle cx="-86.6" cy="750.0" r="3"/>
    <circle cx="1385.64" cy="950.0" r="3"/>
    <circle cx="389.71" cy="725.0" r="3"/>
    <circle cx="1645.45" cy="600.0" r="3"/>
    <circle cx="1775.35" cy="375.0" r="3"/>
    <circle cx="995.93" cy="875.0" r="3"/>
    <circle cx="476.31" cy="-25.0" r="3"/>
    <circle cx="1082.53" cy="725.0" r="3"/>
    <circle cx="1472.24" cy="750.0" r="3"/>
    <circle cx="606.22" cy="800.0" r="3"/>
    <circle cx="-129.9" cy="375.0" r="3"/>
    <circle cx="303.11" cy="125.0" r="3"/>
    <circle cx="1775.35" cy="125.0" r="3"/>
    <circle cx="779.42" cy="800.0" r="3"/>
    <circle cx="1732.05" cy="50.0" r="3"/>
    <circle cx="259.81" cy="1050.0" r="3"/>
    <circle cx="433.01" cy="800.0" r="3"/>
    <circle cx="779.42" cy="500.0" r="3"/>
    <circle cx="1775.35" cy="525.0" r="3"/>
    <circle cx="86.6" cy="950.0" r="3"/>
    <circle cx="909.33" cy="275.0" r="3"/>
    <circle cx="129.9" cy="125.0" r="3"/>
    <circle cx="822.72" cy="1025.0" r="3"/>
    <circle cx="822.72" cy="-75.0" r="3"/>
    <circle cx="1515.54" cy="675.0" r="3"/>
    <circle cx="562.92" cy="975.0" r="3"/>
    <circle cx="-43.3" cy="825.0" r="3"/>
    <circle cx="1125.83" cy="350.0" r="3"/>
    <circle cx="1342.34" cy="275.0" r="3"/>
    <circle cx="173.21" cy="1050.0" r="3"/>
    <circle cx="909.33" cy="125.0" r="3"/>
    <circle cx="86.6" cy="-100.0" r="3"/>
    <circle cx="1385.64" cy="300.0" r="3"/>
    <circle cx="649.52" cy="825.0" r="3"/>
    <circle cx="1602.15" cy="125.0" r="3"/>
    <circle cx="1558.85" cy="600.0" r="3"/>
    <circle cx="866.03" cy="50.0" r="3"/>
    <circle cx="1428.94" cy="1025.0" r="3"/>
    <circle cx="389.71" cy="225.0" r="3"/>
    <circle cx="43.3" cy="425.0" r="3"/>
    <circle cx="-43.3" cy="975.0" r="3"/>
    <circle cx="476.31" cy="575.0" r="3"/>
    <circle cx="649.52" cy="525.0" r="3"/>
    <circle cx="86.6" cy="0.0" r="3"/>
    <circle cx="1732.05" cy="950.0" r="3"/>
    <circle cx="129.9" cy="425.0" r="3"/>
    <circle cx="1688.75" cy="425.0" r="3"/>
    <circle cx="1688.75" cy="875.0" r="3"/>
    <circle cx="1125.83" cy="-100.0" r="3"/>
    <circle cx="1602.15" cy="675.0" r="3"/>
    <circle cx="866.03" cy="300.0" r="3"/>
    <circle cx="303.11" cy="375.0" r="3"/>
    <circle cx="866.03" cy="750.0" r="3"/>
    <circle cx="822.72" cy="725.0" r="3"/>
    <circle cx="433.01" cy="350.0" r="3"/>
    <circle cx="606.22" cy="0.0" r="3"/>
    <circle cx="43.3" cy="575.0" r="3"/>
    <circle cx="1515.54" cy="1025.0" r="3"/>
    <circle cx="303.11" cy="1025.0" r="3"/>
    <circle cx="1342.34" cy="75.0" r="3"/>
    <circle cx="1775.35" cy="725.0" r="3"/>
    <circle cx="303.11" cy="425.0" r="3"/>
    <circle cx="1125.83" cy="600.0" r="3"/>
    <circle cx="909.33" cy="225.0" r="3"/>
    <circle cx="606.22" cy="200.0" r="3"/>
    <circle cx="1385.64" cy="650.0" r="3"/>
    <circle cx="476.31" cy="-75.0" r="3"/>
    <circle cx="736.12" cy="825.0" r="3"/>
    <circle cx="0.0" cy="600.0" r="3"/>
    <circle cx="476.31" cy="675.0" r="3"/>
    <circle cx="1775.35" cy="75.0" r="3"/>
    <circle cx="736.12" cy="125.0" r="3"/>
    <circle cx="952.63" cy="650.0" r="3"/>
    <circle cx="606.22" cy="50.0" r="3"/>
    <circle cx="43.3" cy="125.0" r="3"/>
    <circle cx="433.01" cy="500.0" r="3"/>
    <circle cx="1428.94" cy="225.0" r="3"/>
    <circle cx="736.12" cy="75.0" r="3"/>
    <circle cx="433.01" cy="600.0" r="3"/>
    <circle cx="1212.44" cy="1050.0" r="3"/>
    <circle cx="952.63" cy="300.0" r="3"/>
    <circle cx="1125.83" cy="300.0" r="3"/>
    <circle cx="259.81" cy="50.0" r="3"/>
    <circle cx="562.92" cy="1025.0" r="3"/>
    <circle cx="1775.35" cy="575.0" r="3"/>
    <circle cx="519.62" cy="800.0" r="3"/>
    <circle cx="1732.05" cy="650.0" r="3"/>
    <circle cx="1342.34" cy="425.0" r="3"/>
    <circle cx="562.92" cy="875.0" r="3"/>
    <circle cx="1472.24" cy="350.0" r="3"/>
    <circle cx="1039.23" cy="350.0" r="3"/>
    <circle cx="1472.24" cy="300.0" r="3"/>
    <circle cx="952.63" cy="500.0" r="3"/>
    <circle cx="1645.45" cy="450.0" r="3"/>
    <circle cx="1645.45" cy="500.0" r="3"/>
    <circle cx="216.51" cy="875.0" r="3"/>
    <circle cx="1255.74" cy="575.0" r="3"/>
    <circle cx="1212.44" cy="600.0" r="3"/>
    <circle cx="86.6" cy="900.0" r="3"/>
    <circle cx="-0.0" cy="-100.0" r="3"/>
    <circle cx="173.21" cy="-100.0" r="3"/>
    <circle cx="259.81" cy="800.0" r="3"/>
    <circle cx="1732.05" cy="-100.0" r="3"/>
    <circle cx="1688.75" cy="1025.0" r="3"/>
    <circle cx="43.3" cy="-25.0" r="3"/>
    <circle cx="909.33" cy="675.0" r="3"/>
    <circle cx="909.33" cy="375.0" r="3"/>
    <circle cx="1125.83" cy="1050.0" r="3"/>
    <circle cx="1299.04" cy="900.0" r="3"/>
  </g>
</svg>
