<?xml version="1.0" encoding="UTF-8"?>
<svg id="Layer_1" xmlns="http://www.w3.org/2000/svg" version="1.1" viewBox="0 0 120 60">
  <defs>
    <style>
      .st0 {
        opacity: .81;
      }

      .st0, .st1, .st2, .st3, .st4, .st5, .st6, .st7, .st8, .st9, .st10, .st11, .st12, .st13, .st14, .st15, .st16, .st17, .st18, .st19, .st20, .st21, .st22, .st23, .st24, .st25, .st26, .st27, .st28, .st29, .st30, .st31, .st32, .st33, .st34, .st35, .st36, .st37, .st38, .st39, .st40, .st41, .st42, .st43, .st44, .st45, .st46, .st47, .st48, .st49, .st50, .st51, .st52, .st53, .st54, .st55, .st56, .st57, .st58, .st59, .st60, .st61, .st62, .st63, .st64, .st65, .st66, .st67, .st68, .st69, .st70, .st71, .st72, .st73, .st74, .st75, .st76, .st77, .st78, .st79, .st80, .st81, .st82, .st83, .st84, .st85, .st86, .st87, .st88, .st89, .st90, .st91, .st92, .st93, .st94, .st95, .st96, .st97, .st98, .st99, .st100, .st101, .st102, .st103, .st104, .st105, .st106, .st107, .st108, .st109, .st110, .st111, .st112, .st113, .st114, .st115, .st116, .st117, .st118, .st119, .st120, .st121, .st122, .st123, .st124, .st125, .st126, .st127, .st128, .st129, .st130, .st131, .st132, .st133, .st134, .st135, .st136, .st137, .st138, .st139, .st140, .st141, .st142, .st143, .st144, .st145, .st146, .st147, .st148, .st149, .st150, .st151, .st152, .st153, .st154, .st155, .st156, .st157, .st158, .st159, .st160, .st161, .st162, .st163, .st164, .st165, .st166, .st167, .st168, .st169, .st170, .st171, .st172, .st173, .st174, .st175, .st176, .st177, .st178, .st179, .st180, .st181, .st182, .st183, .st184, .st185, .st186, .st187, .st188, .st189, .st190, .st191, .st192, .st193, .st194, .st195, .st196, .st197, .st198, .st199, .st200, .st201, .st202, .st203 {
        fill: #a7a9ac;
      }

      .st1 {
        opacity: .8;
      }

      .st2 {
        opacity: .83;
      }

      .st3 {
        opacity: .82;
      }

      .st4 {
        opacity: .82;
      }

      .st5 {
        opacity: .82;
      }

      .st6 {
        opacity: .82;
      }

      .st7 {
        opacity: .81;
      }

      .st8 {
        opacity: .78;
      }

      .st9 {
        opacity: .78;
      }

      .st10 {
        opacity: .75;
      }

      .st11 {
        opacity: .78;
      }

      .st12 {
        opacity: .78;
      }

      .st13 {
        opacity: .75;
      }

      .st14 {
        opacity: .74;
      }

      .st15 {
        opacity: .74;
      }

      .st16 {
        opacity: .74;
      }

      .st17 {
        opacity: .74;
      }

      .st18 {
        opacity: .74;
      }

      .st19 {
        opacity: .76;
      }

      .st20 {
        opacity: .71;
      }

      .st21 {
        opacity: .71;
      }

      .st22 {
        opacity: .73;
      }

      .st23 {
        opacity: .73;
      }

      .st24 {
        opacity: .73;
      }

      .st25 {
        opacity: .9;
      }

      .st26 {
        opacity: .92;
      }

      .st27 {
        opacity: .91;
      }

      .st28 {
        opacity: .86;
      }

      .st29 {
        opacity: .89;
      }

      .st30 {
        opacity: .89;
      }

      .st31 {
        opacity: .88;
      }

      .st32 {
        opacity: .88;
      }

      .st33 {
        opacity: .88;
      }

      .st34 {
        opacity: .84;
      }

      .st35 {
        opacity: .84;
      }

      .st36 {
        opacity: .86;
      }

      .st37 {
        opacity: .83;
      }

      .st38 {
        opacity: .85;
      }

      .st39 {
        opacity: .85;
      }

      .st40 {
        opacity: .41;
      }

      .st41 {
        opacity: .4;
      }

      .st42 {
        opacity: .4;
      }

      .st43 {
        opacity: .4;
      }

      .st44 {
        opacity: .4;
      }

      .st45 {
        opacity: .4;
      }

      .st46 {
        opacity: .41;
      }

      .st47 {
        opacity: .41;
      }

      .st48 {
        opacity: .41;
      }

      .st49 {
        opacity: .38;
      }

      .st50 {
        opacity: .38;
      }

      .st51 {
        opacity: .4;
      }

      .st52 {
        opacity: .37;
      }

      .st53 {
        opacity: .38;
      }

      .st54 {
        opacity: .36;
      }

      .st55 {
        opacity: .37;
      }

      .st56 {
        opacity: .37;
      }

      .st57 {
        opacity: .36;
      }

      .st58 {
        opacity: .36;
      }

      .st59 {
        opacity: .93;
      }

      .st60 {
        opacity: .95;
      }

      .st61 {
        opacity: .95;
      }

      .st62 {
        opacity: .95;
      }

      .st63 {
        opacity: .94;
      }

      .st64 {
        opacity: .95;
      }

      .st65 {
        opacity: .95;
      }

      .st66 {
        opacity: .45;
      }

      .st67 {
        opacity: .46;
      }

      .st68 {
        opacity: .45;
      }

      .st69 {
        opacity: .46;
      }

      .st70 {
        opacity: .46;
      }

      .st71 {
        opacity: .45;
      }

      .st72 {
        opacity: .45;
      }

      .st73 {
        opacity: .44;
      }

      .st74 {
        opacity: .44;
      }

      .st75 {
        opacity: .44;
      }

      .st76 {
        opacity: .44;
      }

      .st77 {
        opacity: .42;
      }

      .st78 {
        opacity: .41;
      }

      .st79 {
        opacity: .43;
      }

      .st80 {
        opacity: .43;
      }

      .st81 {
        opacity: .43;
      }

      .st82 {
        opacity: 1;
      }

      .st83 {
        opacity: .99;
      }

      .st84 {
        opacity: .99;
      }

      .st85 {
        opacity: .99;
      }

      .st86 {
        opacity: .99;
      }

      .st87 {
        opacity: .98;
      }

      .st88 {
        opacity: .96;
      }

      .st89 {
        opacity: .96;
      }

      .st90 {
        opacity: .95;
      }

      .st91 {
        opacity: .95;
      }

      .st92 {
        opacity: .95;
      }

      .st93 {
        opacity: .98;
      }

      .st94 {
        opacity: .98;
      }

      .st95 {
        opacity: .94;
      }

      .st96 {
        opacity: .69;
      }

      .st97 {
        opacity: .69;
      }

      .st98 {
        opacity: .68;
      }

      .st99 {
        opacity: .68;
      }

      .st100 {
        opacity: .7;
      }

      .st101 {
        opacity: .7;
      }

      .st102 {
        opacity: .69;
      }

      .st103 {
        opacity: .69;
      }

      .st104 {
        opacity: .2;
      }

      .st105 {
        opacity: .2;
      }

      .st106 {
        opacity: .47;
      }

      .st107 {
        opacity: .47;
      }

      .st108 {
        opacity: .47;
      }

      .st109 {
        opacity: .23;
      }

      .st110 {
        opacity: .23;
      }

      .st111 {
        opacity: .23;
      }

      .st112 {
        opacity: .22;
      }

      .st113 {
        opacity: .22;
      }

      .st114 {
        opacity: .22;
      }

      .st115 {
        opacity: .22;
      }

      .st116 {
        opacity: .56;
      }

      .st117 {
        opacity: .56;
      }

      .st118 {
        opacity: .55;
      }

      .st119 {
        opacity: .55;
      }

      .st120 {
        opacity: .55;
      }

      .st121 {
        opacity: .55;
      }

      .st122 {
        opacity: .55;
      }

      .st123 {
        opacity: .55;
      }

      .st124 {
        opacity: .57;
      }

      .st125 {
        opacity: .56;
      }

      .st126 {
        opacity: .57;
      }

      .st127 {
        opacity: .56;
      }

      .st128 {
        opacity: .57;
      }

      .st129 {
        opacity: .56;
      }

      .st130 {
        opacity: .53;
      }

      .st131 {
        opacity: .53;
      }

      .st132 {
        opacity: .52;
      }

      .st133 {
        opacity: .52;
      }

      .st134 {
        opacity: .54;
      }

      .st135 {
        opacity: .5;
      }

      .st136 {
        opacity: .51;
      }

      .st137 {
        opacity: .51;
      }

      .st138 {
        opacity: .49;
      }

      .st139 {
        opacity: .51;
      }

      .st140 {
        opacity: .51;
      }

      .st141 {
        opacity: .5;
      }

      .st142 {
        opacity: .48;
      }

      .st143 {
        opacity: .48;
      }

      .st144 {
        opacity: .48;
      }

      .st145 {
        opacity: .49;
      }

      .st146 {
        opacity: .49;
      }

      .st147 {
        opacity: .49;
      }

      .st148 {
        opacity: .49;
      }

      .st149 {
        opacity: .35;
      }

      .st150 {
        opacity: .65;
      }

      .st151 {
        opacity: .65;
      }

      .st152 {
        opacity: .64;
      }

      .st153 {
        opacity: .64;
      }

      .st154 {
        opacity: .67;
      }

      .st155 {
        opacity: .64;
      }

      .st156 {
        opacity: .67;
      }

      .st157 {
        opacity: .67;
      }

      .st158 {
        opacity: .66;
      }

      .st159 {
        opacity: .66;
      }

      .st160 {
        opacity: .66;
      }

      .st161 {
        opacity: .62;
      }

      .st162 {
        opacity: .62;
      }

      .st163 {
        opacity: .61;
      }

      .st164 {
        opacity: .62;
      }

      .st165 {
        opacity: .64;
      }

      .st166 {
        opacity: .63;
      }

      .st167 {
        opacity: .64;
      }

      .st168 {
        opacity: .64;
      }

      .st169 {
        opacity: .59;
      }

      .st170 {
        opacity: .58;
      }

      .st171 {
        opacity: .58;
      }

      .st172 {
        opacity: .58;
      }

      .st173 {
        opacity: .58;
      }

      .st174 {
        opacity: .58;
      }

      .st175 {
        opacity: .61;
      }

      .st176 {
        opacity: .6;
      }

      .st177 {
        opacity: .6;
      }

      .st178 {
        opacity: .6;
      }

      .st179 {
        opacity: .24;
      }

      .st180 {
        opacity: .28;
      }

      .st181 {
        opacity: .29;
      }

      .st182 {
        opacity: .29;
      }

      .st183 {
        opacity: .28;
      }

      .st184 {
        opacity: .26;
      }

      .st185 {
        opacity: .27;
      }

      .st186 {
        opacity: .25;
      }

      .st187 {
        opacity: .24;
      }

      .st188 {
        opacity: .24;
      }

      .st189 {
        opacity: .25;
      }

      .st190 {
        opacity: .33;
      }

      .st191 {
        opacity: .33;
      }

      .st192 {
        opacity: .32;
      }

      .st193 {
        opacity: .32;
      }

      .st194 {
        opacity: .32;
      }

      .st195 {
        opacity: .33;
      }

      .st196 {
        opacity: .33;
      }

      .st197 {
        opacity: .33;
      }

      .st198 {
        opacity: .31;
      }

      .st199 {
        opacity: .31;
      }

      .st200 {
        opacity: .29;
      }

      .st201 {
        opacity: .29;
      }

      .st202 {
        opacity: .3;
      }

      .st203 {
        opacity: .3;
      }

      .st205 {
        fill: #e6e7e8;
      }
    </style>
  </defs>
  <g>
    <polygon class="st205" points="3.82 60 5.69 56.74 9.71 56.74 11.58 60 11.67 60 9.75 56.67 5.65 56.67 3.73 60 3.82 60"/>
    <polygon class="st205" points="102.02 60 103.9 56.74 107.92 56.74 109.79 60 109.87 60 107.96 56.67 103.85 56.67 101.94 60 102.02 60"/>
    <polygon class="st205" points="114.3 60 116.17 56.74 120 56.74 120 56.67 116.13 56.67 114.21 60 114.3 60"/>
    <polygon class="st205" points="5.58 56.7 3.69 60 3.78 60 5.67 56.7 3.62 53.12 0 53.12 0 53.2 3.57 53.2 5.58 56.7"/>
    <polygon class="st205" points="11.71 60 9.82 56.7 11.83 53.2 15.85 53.2 17.86 56.7 15.96 60 16.05 60 17.94 56.7 15.89 53.12 11.79 53.12 9.73 56.7 11.63 60 11.71 60"/>
    <polygon class="st205" points="97.64 60 95.75 56.7 97.76 53.2 101.78 53.2 103.79 56.7 101.89 60 101.98 60 103.86 56.72 103.87 56.7 101.82 53.12 97.71 53.12 95.67 56.68 95.66 56.7 97.55 60 97.64 60"/>
    <polygon class="st205" points="109.92 60 108.02 56.7 110.03 53.2 114.05 53.2 116.06 56.7 114.17 60 114.25 60 116.14 56.72 116.15 56.7 114.1 53.12 109.99 53.12 107.95 56.68 107.94 56.7 109.83 60 109.92 60"/>
    <path class="st205" d="M9.75,56.74h-4.11l-2.05-3.58,2.05-3.58h4.11l2.05,3.58-2.05,3.58ZM5.69,56.66h4.02l2.01-3.5-2.01-3.5h-4.02l-2.01,3.5,2.01,3.5Z"/>
    <path class="st205" d="M107.96,56.74h-4.11l-2.05-3.58v-.02s2.05-3.56,2.05-3.56h4.11l2.05,3.58v.02s-2.05,3.56-2.05,3.56ZM103.9,56.66h4.02l2.01-3.5-2.01-3.5h-4.02l-2.01,3.5,2.01,3.5Z"/>
    <polygon class="st205" points="120 56.66 116.17 56.66 114.16 53.16 116.17 49.66 120 49.66 120 49.58 116.13 49.58 114.08 53.14 114.07 53.16 116.13 56.74 120 56.74 120 56.66"/>
    <polygon class="st205" points="3.62 46.04 0 46.04 0 46.12 3.57 46.12 5.58 49.62 3.57 53.12 0 53.12 0 53.2 3.62 53.2 5.67 49.62 3.62 46.04"/>
    <path class="st205" d="M15.89,53.2h-4.11l-2.05-3.58,2.05-3.58h4.11l2.05,3.58-2.05,3.58ZM11.83,53.12h4.02l2.01-3.5-2.01-3.5h-4.02l-2.01,3.5,2.01,3.5Z"/>
    <path class="st205" d="M28.17,53.2h-4.11l-2.05-3.58,2.05-3.58h4.11l2.05,3.58-2.05,3.58ZM24.1,53.12h4.02l2.01-3.5-2.01-3.5h-4.02l-2.01,3.5,2.01,3.5Z"/>
    <path class="st205" d="M101.82,53.2h-4.11l-2.05-3.58v-.02s2.05-3.56,2.05-3.56h4.11l2.05,3.58v.02s-2.05,3.56-2.05,3.56ZM97.76,53.12h4.02l2.01-3.5-2.01-3.5h-4.02l-2.01,3.5,2.01,3.5Z"/>
    <path class="st205" d="M114.1,53.2h-4.11l-2.05-3.58v-.02s2.05-3.56,2.05-3.56h4.11l2.05,3.58v.02s-2.05,3.56-2.05,3.56ZM110.03,53.12h4.02l2.01-3.5-2.01-3.5h-4.02l-2.01,3.5,2.01,3.5Z"/>
    <path class="st205" d="M9.75,49.66h-4.11l-2.05-3.58,2.05-3.58h4.11l2.05,3.58-2.05,3.58ZM5.69,49.58h4.02l2.01-3.5-2.01-3.5h-4.02l-2.01,3.5,2.01,3.5Z"/>
    <path class="st205" d="M22.03,49.66h-4.11l-2.05-3.58,2.05-3.58h4.11l2.05,3.58-2.05,3.58ZM17.97,49.58h4.02l2.01-3.5-2.01-3.5h-4.02l-2.01,3.5,2.01,3.5Z"/>
    <path class="st205" d="M34.31,49.66h-4.11l-2.05-3.58,2.05-3.58h4.11l2.05,3.58-2.05,3.58ZM30.24,49.58h4.02l2.01-3.5-2.01-3.5h-4.02l-2.01,3.5,2.01,3.5Z"/>
    <path class="st205" d="M107.96,49.66h-4.11l-2.05-3.58v-.02s2.05-3.56,2.05-3.56h4.11l2.05,3.58v.02s-2.05,3.56-2.05,3.56ZM103.9,49.58h4.02l2.01-3.5-2.01-3.5h-4.02l-2.01,3.5,2.01,3.5Z"/>
    <polygon class="st205" points="120 49.58 116.17 49.58 114.16 46.08 116.17 42.58 120 42.58 120 42.5 116.13 42.5 114.08 46.06 114.07 46.08 116.13 49.66 120 49.66 120 49.58"/>
    <polygon class="st205" points="3.62 38.96 0 38.96 0 39.04 3.57 39.04 5.58 42.54 3.57 46.04 0 46.04 0 46.11 3.62 46.11 5.67 42.54 3.62 38.96"/>
    <path class="st205" d="M15.89,46.11h-4.11l-2.05-3.58,2.05-3.58h4.11l2.05,3.58-2.05,3.58ZM11.83,46.04h4.02l2.01-3.5-2.01-3.5h-4.02l-2.01,3.5,2.01,3.5Z"/>
    <path class="st205" d="M28.17,46.11h-4.11l-2.05-3.58,2.05-3.58h4.11l2.05,3.58-2.05,3.58ZM24.1,46.04h4.02l2.01-3.5-2.01-3.5h-4.02l-2.01,3.5,2.01,3.5Z"/>
    <path class="st205" d="M101.82,46.11h-4.11l-2.05-3.58v-.02s2.05-3.56,2.05-3.56h4.11l2.05,3.58v.02s-2.05,3.56-2.05,3.56ZM97.76,46.04h4.02l2.01-3.5-2.01-3.5h-4.02l-2.01,3.5,2.01,3.5Z"/>
    <path class="st205" d="M114.1,46.11h-4.11l-2.05-3.58v-.02s2.05-3.56,2.05-3.56h4.11l2.05,3.58v.02s-2.05,3.56-2.05,3.56ZM110.03,46.04h4.02l2.01-3.5-2.01-3.5h-4.02l-2.01,3.5,2.01,3.5Z"/>
    <path class="st205" d="M9.75,42.57h-4.11l-2.05-3.58,2.05-3.58h4.11l2.05,3.58-2.05,3.58ZM5.69,42.5h4.02l2.01-3.5-2.01-3.5h-4.02l-2.01,3.5,2.01,3.5Z"/>
    <path class="st205" d="M22.03,42.57h-4.11l-2.05-3.58,2.05-3.58h4.11l2.05,3.58-2.05,3.58ZM17.97,42.5h4.02l2.01-3.5-2.01-3.5h-4.02l-2.01,3.5,2.01,3.5Z"/>
    <path class="st205" d="M34.31,42.57h-4.11l-2.05-3.58,2.05-3.58h4.11l2.05,3.58-2.05,3.58ZM30.24,42.5h4.02l2.01-3.5-2.01-3.5h-4.02l-2.01,3.5,2.01,3.5Z"/>
    <path class="st205" d="M95.68,42.57h-4.11l-2.05-3.58v-.02s2.05-3.56,2.05-3.56h4.11l2.05,3.58v.02s-2.05,3.56-2.05,3.56ZM91.62,42.5h4.02l2.01-3.5-2.01-3.5h-4.02l-2.01,3.5,2.01,3.5Z"/>
    <path class="st205" d="M107.96,42.57h-4.11l-2.05-3.58v-.02s2.05-3.56,2.05-3.56h4.11l2.05,3.58v.02s-2.05,3.56-2.05,3.56ZM103.9,42.5h4.02l2.01-3.5-2.01-3.5h-4.02l-2.01,3.5,2.01,3.5Z"/>
    <polygon class="st205" points="120 42.5 116.17 42.5 114.16 39 116.17 35.5 120 35.5 120 35.42 116.13 35.42 114.08 38.98 114.07 39 116.13 42.57 120 42.57 120 42.5"/>
    <polygon class="st205" points="3.62 31.88 0 31.88 0 31.96 3.57 31.96 5.58 35.46 3.57 38.96 0 38.96 0 39.03 3.62 39.03 5.67 35.46 3.62 31.88"/>
    <path class="st205" d="M15.89,39.03h-4.11l-2.05-3.58,2.05-3.58h4.11l2.05,3.58-2.05,3.58ZM11.83,38.96h4.02l2.01-3.5-2.01-3.5h-4.02l-2.01,3.5,2.01,3.5Z"/>
    <path class="st205" d="M28.17,39.03h-4.11l-2.05-3.58,2.05-3.58h4.11l2.05,3.58-2.05,3.58ZM24.1,38.96h4.02l2.01-3.5-2.01-3.5h-4.02l-2.01,3.5,2.01,3.5Z"/>
    <path class="st205" d="M89.54,39.03h-4.11l-2.05-3.58v-.02s2.05-3.56,2.05-3.56h4.11l2.05,3.58v.02s-2.05,3.56-2.05,3.56ZM85.48,38.96h4.02l2.01-3.5-2.01-3.5h-4.02l-2.01,3.5,2.01,3.5Z"/>
    <path class="st205" d="M101.82,39.03h-4.11l-2.05-3.58v-.02s2.05-3.56,2.05-3.56h4.11l2.05,3.58v.02s-2.05,3.56-2.05,3.56ZM97.76,38.96h4.02l2.01-3.5-2.01-3.5h-4.02l-2.01,3.5,2.01,3.5Z"/>
    <path class="st205" d="M114.1,39.03h-4.11l-2.05-3.58v-.02s2.05-3.56,2.05-3.56h4.11l2.05,3.58v.02s-2.05,3.56-2.05,3.56ZM110.03,38.96h4.02l2.01-3.5-2.01-3.5h-4.02l-2.01,3.5,2.01,3.5Z"/>
    <path class="st205" d="M9.75,35.49h-4.11l-2.05-3.58,2.05-3.58h4.11l2.05,3.58-2.05,3.58ZM5.69,35.42h4.02l2.01-3.5-2.01-3.5h-4.02l-2.01,3.5,2.01,3.5Z"/>
    <path class="st205" d="M22.03,35.49h-4.11l-2.05-3.58,2.05-3.58h4.11l2.05,3.58-2.05,3.58ZM17.97,35.42h4.02l2.01-3.5-2.01-3.5h-4.02l-2.01,3.5,2.01,3.5Z"/>
    <path class="st205" d="M34.31,35.49h-4.11l-2.05-3.58,2.05-3.58h4.11l2.05,3.58-2.05,3.58ZM30.24,35.42h4.02l2.01-3.5-2.01-3.5h-4.02l-2.01,3.5,2.01,3.5Z"/>
    <path class="st205" d="M95.68,35.49h-4.11l-2.05-3.58v-.02s2.05-3.56,2.05-3.56h4.11l2.05,3.58v.02s-2.05,3.56-2.05,3.56ZM91.62,35.42h4.02l2.01-3.5-2.01-3.5h-4.02l-2.01,3.5,2.01,3.5Z"/>
    <path class="st205" d="M107.96,35.49h-4.11l-2.05-3.58v-.02s2.05-3.56,2.05-3.56h4.11l2.05,3.58v.02s-2.05,3.56-2.05,3.56ZM103.9,35.42h4.02l2.01-3.5-2.01-3.5h-4.02l-2.01,3.5,2.01,3.5Z"/>
    <polygon class="st205" points="120 35.42 116.17 35.42 114.16 31.92 116.17 28.41 120 28.41 120 28.34 116.13 28.34 114.08 31.9 114.07 31.92 116.13 35.49 120 35.49 120 35.42"/>
    <polygon class="st205" points="3.62 24.8 0 24.8 0 24.87 3.57 24.87 5.58 28.37 3.57 31.88 0 31.88 0 31.95 3.62 31.95 5.67 28.37 3.62 24.8"/>
    <path class="st205" d="M15.89,31.95h-4.11l-2.05-3.58,2.05-3.58h4.11l2.05,3.58-2.05,3.58ZM11.83,31.88h4.02l2.01-3.5-2.01-3.5h-4.02l-2.01,3.5,2.01,3.5Z"/>
    <path class="st205" d="M28.17,31.95h-4.11l-2.05-3.58,2.05-3.58h4.11l2.05,3.58-2.05,3.58ZM24.1,31.88h4.02l2.01-3.5-2.01-3.5h-4.02l-2.01,3.5,2.01,3.5Z"/>
    <path class="st205" d="M89.54,31.95h-4.11l-2.05-3.58v-.02s2.05-3.56,2.05-3.56h4.11l2.05,3.58v.02s-2.05,3.56-2.05,3.56ZM85.48,31.88h4.02l2.01-3.5-2.01-3.5h-4.02l-2.01,3.5,2.01,3.5Z"/>
    <path class="st205" d="M101.82,31.95h-4.11l-2.05-3.58v-.02s2.05-3.56,2.05-3.56h4.11l2.05,3.58v.02s-2.05,3.56-2.05,3.56ZM97.76,31.88h4.02l2.01-3.5-2.01-3.5h-4.02l-2.01,3.5,2.01,3.5Z"/>
    <path class="st205" d="M114.1,31.95h-4.11l-2.05-3.58v-.02s2.05-3.56,2.05-3.56h4.11l2.05,3.58v.02s-2.05,3.56-2.05,3.56ZM110.03,31.88h4.02l2.01-3.5-2.01-3.5h-4.02l-2.01,3.5,2.01,3.5Z"/>
    <path class="st205" d="M9.75,28.41h-4.11l-2.05-3.58,2.05-3.58h4.11l2.05,3.58-2.05,3.58ZM5.69,28.33h4.02l2.01-3.5-2.01-3.5h-4.02l-2.01,3.5,2.01,3.5Z"/>
    <path class="st205" d="M22.03,28.41h-4.11l-2.05-3.58,2.05-3.58h4.11l2.05,3.58-2.05,3.58ZM17.97,28.33h4.02l2.01-3.5-2.01-3.5h-4.02l-2.01,3.5,2.01,3.5Z"/>
    <path class="st205" d="M34.31,28.41h-4.11l-2.05-3.58,2.05-3.58h4.11l2.05,3.58-2.05,3.58ZM30.24,28.33h4.02l2.01-3.5-2.01-3.5h-4.02l-2.01,3.5,2.01,3.5Z"/>
    <path class="st205" d="M95.68,28.41h-4.11l-2.05-3.58v-.02s2.05-3.56,2.05-3.56h4.11l2.05,3.58v.02s-2.05,3.56-2.05,3.56ZM91.62,28.33h4.02l2.01-3.5-2.01-3.5h-4.02l-2.01,3.5,2.01,3.5Z"/>
    <path class="st205" d="M107.96,28.41h-4.11l-2.05-3.58v-.02s2.05-3.56,2.05-3.56h4.11l2.05,3.58v.02s-2.05,3.56-2.05,3.56ZM103.9,28.33h4.02l2.01-3.5-2.01-3.5h-4.02l-2.01,3.5,2.01,3.5Z"/>
    <polygon class="st205" points="120 28.33 116.17 28.33 114.16 24.83 116.17 21.33 120 21.33 120 21.26 116.13 21.26 114.08 24.81 114.07 24.83 116.13 28.41 120 28.41 120 28.33"/>
    <polygon class="st205" points="3.62 17.72 0 17.72 0 17.79 3.57 17.79 5.58 21.29 3.57 24.79 0 24.79 0 24.87 3.62 24.87 5.67 21.29 3.62 17.72"/>
    <path class="st205" d="M15.89,24.87h-4.11l-2.05-3.58,2.05-3.58h4.11l2.05,3.58-2.05,3.58ZM11.83,24.79h4.02l2.01-3.5-2.01-3.5h-4.02l-2.01,3.5,2.01,3.5Z"/>
    <path class="st205" d="M28.17,24.87h-4.11l-2.05-3.58,2.05-3.58h4.11l2.05,3.58-2.05,3.58ZM24.1,24.79h4.02l2.01-3.5-2.01-3.5h-4.02l-2.01,3.5,2.01,3.5Z"/>
    <path class="st205" d="M89.54,24.87h-4.11l-2.05-3.58v-.02s2.05-3.56,2.05-3.56h4.11l2.05,3.58v.02s-2.05,3.56-2.05,3.56ZM85.48,24.79h4.02l2.01-3.5-2.01-3.5h-4.02l-2.01,3.5,2.01,3.5Z"/>
    <path class="st205" d="M101.82,24.87h-4.11l-2.05-3.58v-.02s2.05-3.56,2.05-3.56h4.11l2.05,3.58v.02s-2.05,3.56-2.05,3.56ZM97.76,24.79h4.02l2.01-3.5-2.01-3.5h-4.02l-2.01,3.5,2.01,3.5Z"/>
    <path class="st205" d="M114.1,24.87h-4.11l-2.05-3.58v-.02s2.05-3.56,2.05-3.56h4.11l2.05,3.58v.02s-2.05,3.56-2.05,3.56ZM110.03,24.79h4.02l2.01-3.5-2.01-3.5h-4.02l-2.01,3.5,2.01,3.5Z"/>
    <path class="st205" d="M9.75,21.33h-4.11l-2.05-3.58,2.05-3.58h4.11l2.05,3.58-2.05,3.58ZM5.69,21.25h4.02l2.01-3.5-2.01-3.5h-4.02l-2.01,3.5,2.01,3.5Z"/>
    <path class="st205" d="M22.03,21.33h-4.11l-2.05-3.58,2.05-3.58h4.11l2.05,3.58-2.05,3.58ZM17.97,21.25h4.02l2.01-3.5-2.01-3.5h-4.02l-2.01,3.5,2.01,3.5Z"/>
    <path class="st205" d="M34.31,21.33h-4.11l-2.05-3.58,2.05-3.58h4.11l2.05,3.58-2.05,3.58ZM30.24,21.25h4.02l2.01-3.5-2.01-3.5h-4.02l-2.01,3.5,2.01,3.5Z"/>
    <path class="st205" d="M95.68,21.33h-4.11l-2.05-3.58v-.02s2.05-3.56,2.05-3.56h4.11l2.05,3.58v.02s-2.05,3.56-2.05,3.56ZM91.62,21.25h4.02l2.01-3.5-2.01-3.5h-4.02l-2.01,3.5,2.01,3.5Z"/>
    <path class="st205" d="M107.96,21.33h-4.11l-2.05-3.58v-.02s2.05-3.56,2.05-3.56h4.11l2.05,3.58v.02s-2.05,3.56-2.05,3.56ZM103.9,21.25h4.02l2.01-3.5-2.01-3.5h-4.02l-2.01,3.5,2.01,3.5Z"/>
    <polygon class="st205" points="120 21.25 116.17 21.25 114.16 17.75 116.17 14.25 120 14.25 120 14.18 116.13 14.18 114.08 17.73 114.07 17.75 116.13 21.33 120 21.33 120 21.25"/>
    <polygon class="st205" points="3.62 10.63 0 10.63 0 10.71 3.57 10.71 5.58 14.21 3.57 17.71 0 17.71 0 17.79 3.62 17.79 5.67 14.21 3.62 10.63"/>
    <path class="st205" d="M15.89,17.79h-4.11l-2.05-3.58,2.05-3.58h4.11l2.05,3.58-2.05,3.58ZM11.83,17.71h4.02l2.01-3.5-2.01-3.5h-4.02l-2.01,3.5,2.01,3.5Z"/>
    <path class="st205" d="M28.17,17.79h-4.11l-2.05-3.58,2.05-3.58h4.11l2.05,3.58-2.05,3.58ZM24.1,17.71h4.02l2.01-3.5-2.01-3.5h-4.02l-2.01,3.5,2.01,3.5Z"/>
    <path class="st205" d="M89.54,17.79h-4.11l-2.05-3.58v-.02s2.05-3.56,2.05-3.56h4.11l2.05,3.58v.02s-2.05,3.56-2.05,3.56ZM85.48,17.71h4.02l2.01-3.5-2.01-3.5h-4.02l-2.01,3.5,2.01,3.5Z"/>
    <path class="st205" d="M114.1,17.79h-4.11l-2.05-3.58v-.02s2.05-3.56,2.05-3.56h4.11l2.05,3.58v.02s-2.05,3.56-2.05,3.56ZM110.03,17.71h4.02l2.01-3.5-2.01-3.5h-4.02l-2.01,3.5,2.01,3.5Z"/>
    <path class="st205" d="M34.31,14.25h-4.11l-2.05-3.58,2.05-3.58h4.11l2.05,3.58-2.05,3.58ZM30.24,14.17h4.02l2.01-3.5-2.01-3.5h-4.02l-2.01,3.5,2.01,3.5Z"/>
    <polygon class="st205" points="120 14.17 116.17 14.17 114.16 10.67 116.17 7.17 120 7.17 120 7.09 116.13 7.09 114.08 10.65 114.07 10.67 116.13 14.25 120 14.25 120 14.17"/>
    <polygon class="st205" points="3.62 3.55 0 3.55 0 3.63 3.57 3.63 5.58 7.13 3.57 10.63 0 10.63 0 10.71 3.62 10.71 5.67 7.13 3.62 3.55"/>
    <path class="st205" d="M89.54,10.71h-4.11l-2.05-3.58v-.02s2.05-3.56,2.05-3.56h4.11l2.05,3.58v.02s-2.05,3.56-2.05,3.56ZM85.48,10.63h4.02l2.01-3.5-2.01-3.5h-4.02l-2.01,3.5,2.01,3.5Z"/>
    <path class="st205" d="M114.1,10.71h-4.11l-2.05-3.58v-.02s2.05-3.56,2.05-3.56h4.11l2.05,3.58v.02s-2.05,3.56-2.05,3.56ZM110.03,10.63h4.02l2.01-3.5-2.01-3.5h-4.02l-2.01,3.5,2.01,3.5Z"/>
    <path class="st205" d="M34.31,7.16h-4.11l-2.05-3.58L30.2.01h4.11l2.05,3.58-2.05,3.58ZM30.24,7.09h4.02l2.01-3.5L34.26.09h-4.02l-2.01,3.5,2.01,3.5Z"/>
    <polygon class="st205" points="120 7.09 116.17 7.09 114.16 3.59 116.17 .09 120 .09 120 .01 116.13 .01 114.08 3.57 114.07 3.59 116.13 7.16 120 7.16 120 7.09"/>
    <polygon class="st205" points="5.64 0 5.56 0 5.58 .05 3.57 3.55 0 3.55 0 3.62 3.62 3.62 5.67 .05 5.64 0"/>
    <polygon class="st205" points="91.48 0 91.51 .05 89.5 3.55 85.48 3.55 83.47 .05 83.5 0 83.41 0 83.4 .03 83.39 .05 85.44 3.62 89.54 3.62 91.59 .07 91.6 .05 91.57 0 91.48 0"/>
    <polygon class="st205" points="116.04 0 116.06 .05 114.05 3.55 110.03 3.55 108.02 .05 108.05 0 107.96 0 107.95 .03 107.94 .05 109.99 3.62 114.1 3.62 116.14 .07 116.15 .05 116.12 0 116.04 0"/>
    <polygon class="st205" points="34.27 0 34.26 0 30.24 0 30.24 0 30.15 0 30.2 .08 34.31 .08 34.35 0 34.27 0"/>
    <polygon class="st205" points="120 0 116.17 0 116.17 0 116.08 0 116.13 .08 120 .08 120 0"/>
  </g>
  <g>
    <polygon class="st174" points="3.45 60 3.53 60 1.61 56.65 0 56.65 0 56.73 1.57 56.73 3.45 60"/>
    <polygon class="st1" points="20.22 60 22.1 56.73 26.12 56.73 28 60 28.09 60 26.16 56.65 22.06 56.65 20.14 60 20.22 60"/>
    <polygon class="st61" points="32.5 60 34.38 56.73 38.4 56.73 40.27 60 40.36 60 38.44 56.65 34.33 56.65 32.41 60 32.5 60"/>
    <polygon class="st111" points="81.6 60 83.48 56.73 87.5 56.73 89.38 60 89.46 60 87.54 56.65 83.44 56.65 81.52 60 81.6 60"/>
    <polygon class="st78" points="93.88 60 95.75 56.73 99.77 56.73 101.65 60 101.74 60 99.82 56.65 95.71 56.65 93.79 60 93.88 60"/>
    <polygon class="st184" points="106.15 60 108.03 56.73 112.05 56.73 113.93 60 114.01 60 112.09 56.65 107.99 56.65 106.07 60 106.15 60"/>
    <polygon class="st28" points="28.13 60 26.23 56.69 28.24 53.19 32.26 53.19 34.27 56.69 32.37 60 32.46 60 34.36 56.69 32.3 53.11 28.2 53.11 26.14 56.69 28.04 60 28.13 60"/>
    <polygon class="st148" points="40.41 60 38.51 56.69 40.52 53.19 44.53 53.19 46.54 56.69 44.64 60 44.73 60 46.63 56.69 44.58 53.11 40.47 53.11 38.42 56.69 40.32 60 40.41 60"/>
    <polygon class="st74" points="77.23 60 75.33 56.69 77.34 53.19 81.36 53.19 83.37 56.69 81.47 60 81.56 60 83.45 56.71 83.46 56.69 81.4 53.11 77.3 53.11 75.26 56.67 75.25 56.69 77.15 60 77.23 60"/>
    <polygon class="st81" points="89.51 60 87.61 56.69 89.62 53.19 93.64 53.19 95.65 56.69 93.75 60 93.83 60 95.72 56.71 95.73 56.69 93.68 53.11 89.57 53.11 87.53 56.67 87.52 56.69 89.42 60 89.51 60"/>
    <polygon class="st4" points="101.78 60 99.88 56.69 101.89 53.19 105.91 53.19 107.92 56.69 106.02 60 106.11 60 108 56.71 108.01 56.69 105.96 53.11 101.85 53.11 99.81 56.67 99.8 56.69 101.7 60 101.78 60"/>
    <g>
      <polygon class="st141" points="120 57.03 118.3 60 118.38 60 120 57.19 120 57.03"/>
      <polygon class="st180" points="114.06 60 112.16 56.69 114.17 53.19 118.19 53.19 120 56.35 120 56.2 118.23 53.11 114.12 53.11 112.08 56.67 112.07 56.69 113.97 60 114.06 60"/>
    </g>
    <polygon class="st196" points="1.61 49.57 0 49.57 0 49.65 1.57 49.65 3.58 53.15 1.57 56.65 0 56.65 0 56.73 1.61 56.73 3.67 53.15 1.61 49.57"/>
    <path class="st21" d="M26.16,56.73h-4.11l-2.05-3.58,2.05-3.58h4.11l2.05,3.58-2.05,3.58ZM22.1,56.65h4.02l2.01-3.5-2.01-3.5h-4.02l-2.01,3.5,2.01,3.5Z"/>
    <path class="st24" d="M38.44,56.73h-4.11l-2.05-3.58,2.05-3.58h4.11l2.05,3.58-2.05,3.58ZM34.38,56.65h4.02l2.01-3.5-2.01-3.5h-4.02l-2.01,3.5,2.01,3.5Z"/>
    <path class="st47" d="M87.54,56.73h-4.11l-2.05-3.58v-.02s2.05-3.56,2.05-3.56h4.11l2.05,3.58v.02s-2.05,3.56-2.05,3.56ZM83.48,56.65h4.02l2.01-3.5-2.01-3.5h-4.02l-2.01,3.5,2.01,3.5Z"/>
    <path class="st189" d="M99.82,56.73h-4.11l-2.05-3.58v-.02s2.05-3.56,2.05-3.56h4.11l2.05,3.58v.02s-2.05,3.56-2.05,3.56ZM95.75,56.65h4.02l2.01-3.5-2.01-3.5h-4.02l-2.01,3.5,2.01,3.5Z"/>
    <path class="st185" d="M112.09,56.73h-4.11l-2.05-3.58v-.02s2.05-3.56,2.05-3.56h4.11l2.05,3.58v.02s-2.05,3.56-2.05,3.56ZM108.03,56.65h4.02l2.01-3.5-2.01-3.5h-4.02l-2.01,3.5,2.01,3.5Z"/>
    <path class="st165" d="M32.3,53.18h-4.11l-2.05-3.58,2.05-3.58h4.11l2.05,3.58-2.05,3.58ZM28.24,53.11h4.02l2.01-3.5-2.01-3.5h-4.02l-2.01,3.5,2.01,3.5Z"/>
    <path class="st200" d="M105.96,53.18h-4.11l-2.05-3.58v-.02s2.05-3.56,2.05-3.56h4.11l2.05,3.58v.02s-2.05,3.56-2.05,3.56ZM101.89,53.11h4.02l2.01-3.5-2.01-3.5h-4.02l-2.01,3.5,2.01,3.5Z"/>
    <polygon class="st151" points="120 49.95 118.19 53.11 114.17 53.11 112.16 49.61 114.17 46.11 118.19 46.11 120 49.26 120 49.11 118.23 46.03 114.12 46.03 112.08 49.59 112.07 49.61 114.12 53.18 118.23 53.18 120 50.1 120 49.95"/>
    <polygon class="st114" points="1.61 42.49 0 42.49 0 42.57 1.57 42.57 3.58 46.07 1.57 49.57 0 49.57 0 49.64 1.61 49.64 3.67 46.07 1.61 42.49"/>
    <path class="st36" d="M13.89,49.64h-4.11l-2.05-3.58,2.05-3.58h4.11l2.05,3.58-2.05,3.58ZM9.83,49.57h4.02l2.01-3.5-2.01-3.5h-4.02l-2.01,3.5,2.01,3.5Z"/>
    <path class="st88" d="M26.16,49.64h-4.11l-2.05-3.58,2.05-3.58h4.11l2.05,3.58-2.05,3.58ZM22.1,49.57h4.02l2.01-3.5-2.01-3.5h-4.02l-2.01,3.5,2.01,3.5Z"/>
    <path class="st83" d="M99.82,49.64h-4.11l-2.05-3.58v-.02s2.05-3.56,2.05-3.56h4.11l2.05,3.58v.02s-2.05,3.56-2.05,3.56ZM95.75,49.57h4.02l2.01-3.5-2.01-3.5h-4.02l-2.01,3.5,2.01,3.5Z"/>
    <path class="st41" d="M112.09,49.64h-4.11l-2.05-3.58v-.02s2.05-3.56,2.05-3.56h4.11l2.05,3.58v.02s-2.05,3.56-2.05,3.56ZM108.03,49.57h4.02l2.01-3.5-2.01-3.5h-4.02l-2.01,3.5,2.01,3.5Z"/>
    <path class="st50" d="M7.75,46.1H3.65l-2.05-3.58,2.05-3.58h4.11l2.05,3.58-2.05,3.58ZM3.69,46.03h4.02l2.01-3.5-2.01-3.5H3.69l-2.01,3.5,2.01,3.5Z"/>
    <path class="st101" d="M20.03,46.1h-4.11l-2.05-3.58,2.05-3.58h4.11l2.05,3.58-2.05,3.58ZM15.96,46.03h4.02l2.01-3.5-2.01-3.5h-4.02l-2.01,3.5,2.01,3.5Z"/>
    <path class="st60" d="M32.3,46.1h-4.11l-2.05-3.58,2.05-3.58h4.11l2.05,3.58-2.05,3.58ZM28.24,46.03h4.02l2.01-3.5-2.01-3.5h-4.02l-2.01,3.5,2.01,3.5Z"/>
    <path class="st193" d="M105.96,46.1h-4.11l-2.05-3.58v-.02s2.05-3.56,2.05-3.56h4.11l2.05,3.58v.02s-2.05,3.56-2.05,3.56ZM101.89,46.03h4.02l2.01-3.5-2.01-3.5h-4.02l-2.01,3.5,2.01,3.5Z"/>
    <polygon class="st92" points="120 42.87 118.19 46.03 114.17 46.03 112.16 42.53 114.17 39.03 118.19 39.03 120 42.18 120 42.03 118.23 38.95 114.12 38.95 112.08 42.51 112.07 42.53 114.12 46.1 118.23 46.1 120 43.02 120 42.87"/>
    <polygon class="st71" points="1.61 35.41 0 35.41 0 35.49 1.57 35.49 3.58 38.99 1.57 42.49 0 42.49 0 42.56 1.61 42.56 3.67 38.99 1.61 35.41"/>
    <path class="st23" d="M13.89,42.56h-4.11l-2.05-3.58,2.05-3.58h4.11l2.05,3.58-2.05,3.58ZM9.83,42.49h4.02l2.01-3.5-2.01-3.5h-4.02l-2.01,3.5,2.01,3.5Z"/>
    <path class="st0" d="M26.16,42.56h-4.11l-2.05-3.58,2.05-3.58h4.11l2.05,3.58-2.05,3.58ZM22.1,42.49h4.02l2.01-3.5-2.01-3.5h-4.02l-2.01,3.5,2.01,3.5Z"/>
    <path class="st187" d="M38.44,42.56h-4.11l-2.05-3.58,2.05-3.58h4.11l2.05,3.58-2.05,3.58ZM34.38,42.49h4.02l2.01-3.5-2.01-3.5h-4.02l-2.01,3.5,2.01,3.5Z"/>
    <path class="st17" d="M87.54,42.56h-4.11l-2.05-3.58v-.02s2.05-3.56,2.05-3.56h4.11l2.05,3.58v.02s-2.05,3.56-2.05,3.56ZM83.48,42.49h4.02l2.01-3.5-2.01-3.5h-4.02l-2.01,3.5,2.01,3.5Z"/>
    <path class="st147" d="M99.82,42.56h-4.11l-2.05-3.58v-.02s2.05-3.56,2.05-3.56h4.11l2.05,3.58v.02s-2.05,3.56-2.05,3.56ZM95.75,42.49h4.02l2.01-3.5-2.01-3.5h-4.02l-2.01,3.5,2.01,3.5Z"/>
    <path class="st86" d="M112.09,42.56h-4.11l-2.05-3.58v-.02s2.05-3.56,2.05-3.56h4.11l2.05,3.58v.02s-2.05,3.56-2.05,3.56ZM108.03,42.49h4.02l2.01-3.5-2.01-3.5h-4.02l-2.01,3.5,2.01,3.5Z"/>
    <path class="st186" d="M7.75,39.02H3.65l-2.05-3.58,2.05-3.58h4.11l2.05,3.58-2.05,3.58ZM3.69,38.95h4.02l2.01-3.5-2.01-3.5H3.69l-2.01,3.5,2.01,3.5Z"/>
    <path class="st64" d="M20.03,39.02h-4.11l-2.05-3.58,2.05-3.58h4.11l2.05,3.58-2.05,3.58ZM15.96,38.95h4.02l2.01-3.5-2.01-3.5h-4.02l-2.01,3.5,2.01,3.5Z"/>
    <path class="st55" d="M32.3,39.02h-4.11l-2.05-3.58,2.05-3.58h4.11l2.05,3.58-2.05,3.58ZM28.24,38.95h4.02l2.01-3.5-2.01-3.5h-4.02l-2.01,3.5,2.01,3.5Z"/>
    <path class="st15" d="M93.68,39.02h-4.11l-2.05-3.58v-.02s2.05-3.56,2.05-3.56h4.11l2.05,3.58v.02s-2.05,3.56-2.05,3.56ZM89.62,38.95h4.02l2.01-3.5-2.01-3.5h-4.02l-2.01,3.5,2.01,3.5Z"/>
    <path class="st87" d="M105.96,39.02h-4.11l-2.05-3.58v-.02s2.05-3.56,2.05-3.56h4.11l2.05,3.58v.02s-2.05,3.56-2.05,3.56ZM101.89,38.95h4.02l2.01-3.5-2.01-3.5h-4.02l-2.01,3.5,2.01,3.5Z"/>
    <polygon class="st48" points="120 35.79 118.19 38.95 114.17 38.95 112.16 35.44 114.17 31.94 118.19 31.94 120 35.1 120 34.95 118.23 31.87 114.12 31.87 112.08 35.43 112.07 35.44 114.12 39.02 118.23 39.02 120 35.94 120 35.79"/>
    <polygon class="st91" points="1.61 28.33 0 28.33 0 28.4 1.57 28.4 3.58 31.9 1.57 35.4 0 35.4 0 35.48 1.61 35.48 3.67 31.9 1.61 28.33"/>
    <path class="st65" d="M13.89,35.48h-4.11l-2.05-3.58,2.05-3.58h4.11l2.05,3.58-2.05,3.58ZM9.83,35.4h4.02l2.01-3.5-2.01-3.5h-4.02l-2.01,3.5,2.01,3.5Z"/>
    <path class="st130" d="M26.16,35.48h-4.11l-2.05-3.58,2.05-3.58h4.11l2.05,3.58-2.05,3.58ZM22.1,35.4h4.02l2.01-3.5-2.01-3.5h-4.02l-2.01,3.5,2.01,3.5Z"/>
    <path class="st63" d="M38.44,35.48h-4.11l-2.05-3.58,2.05-3.58h4.11l2.05,3.58-2.05,3.58ZM34.38,35.4h4.02l2.01-3.5-2.01-3.5h-4.02l-2.01,3.5,2.01,3.5Z"/>
    <path class="st179" d="M87.54,35.48h-4.11l-2.05-3.58v-.02s2.05-3.56,2.05-3.56h4.11l2.05,3.58v.02s-2.05,3.56-2.05,3.56ZM83.48,35.4h4.02l2.01-3.5-2.01-3.5h-4.02l-2.01,3.5,2.01,3.5Z"/>
    <path class="st188" d="M99.82,35.48h-4.11l-2.05-3.58v-.02s2.05-3.56,2.05-3.56h4.11l2.05,3.58v.02s-2.05,3.56-2.05,3.56ZM95.75,35.4h4.02l2.01-3.5-2.01-3.5h-4.02l-2.01,3.5,2.01,3.5Z"/>
    <path class="st94" d="M112.09,35.48h-4.11l-2.05-3.58v-.02s2.05-3.56,2.05-3.56h4.11l2.05,3.58v.02s-2.05,3.56-2.05,3.56ZM108.03,35.4h4.02l2.01-3.5-2.01-3.5h-4.02l-2.01,3.5,2.01,3.5Z"/>
    <path class="st135" d="M7.75,31.94H3.65l-2.05-3.58,2.05-3.58h4.11l2.05,3.58-2.05,3.58ZM3.69,31.86h4.02l2.01-3.5-2.01-3.5H3.69l-2.01,3.5,2.01,3.5Z"/>
    <path class="st183" d="M20.03,31.94h-4.11l-2.05-3.58,2.05-3.58h4.11l2.05,3.58-2.05,3.58ZM15.96,31.86h4.02l2.01-3.5-2.01-3.5h-4.02l-2.01,3.5,2.01,3.5Z"/>
    <path class="st70" d="M32.3,31.94h-4.11l-2.05-3.58,2.05-3.58h4.11l2.05,3.58-2.05,3.58ZM28.24,31.86h4.02l2.01-3.5-2.01-3.5h-4.02l-2.01,3.5,2.01,3.5Z"/>
    <path class="st14" d="M93.68,31.94h-4.11l-2.05-3.58v-.02s2.05-3.56,2.05-3.56h4.11l2.05,3.58v.02s-2.05,3.56-2.05,3.56ZM89.62,31.86h4.02l2.01-3.5-2.01-3.5h-4.02l-2.01,3.5,2.01,3.5Z"/>
    <path class="st167" d="M105.96,31.94h-4.11l-2.05-3.58v-.02s2.05-3.56,2.05-3.56h4.11l2.05,3.58v.02s-2.05,3.56-2.05,3.56ZM101.89,31.86h4.02l2.01-3.5-2.01-3.5h-4.02l-2.01,3.5,2.01,3.5Z"/>
    <polygon class="st166" points="120 28.71 118.19 31.86 114.17 31.86 112.16 28.36 114.17 24.86 118.19 24.86 120 28.02 120 27.87 118.23 24.79 114.12 24.79 112.08 28.34 112.07 28.36 114.12 31.94 118.23 31.94 120 28.86 120 28.71"/>
    <polygon class="st51" points="1.61 21.25 0 21.25 0 21.32 1.57 21.32 3.58 24.82 1.57 28.32 0 28.32 0 28.4 1.61 28.4 3.67 24.82 1.61 21.25"/>
    <path class="st109" d="M13.89,28.4h-4.11l-2.05-3.58,2.05-3.58h4.11l2.05,3.58-2.05,3.58ZM9.83,28.32h4.02l2.01-3.5-2.01-3.5h-4.02l-2.01,3.5,2.01,3.5Z"/>
    <path class="st116" d="M26.16,28.4h-4.11l-2.05-3.58,2.05-3.58h4.11l2.05,3.58-2.05,3.58ZM22.1,28.32h4.02l2.01-3.5-2.01-3.5h-4.02l-2.01,3.5,2.01,3.5Z"/>
    <path class="st5" d="M99.82,28.4h-4.11l-2.05-3.58v-.02s2.05-3.56,2.05-3.56h4.11l2.05,3.58v.02s-2.05,3.56-2.05,3.56ZM95.75,28.32h4.02l2.01-3.5-2.01-3.5h-4.02l-2.01,3.5,2.01,3.5Z"/>
    <path class="st159" d="M112.09,28.4h-4.11l-2.05-3.58v-.02s2.05-3.56,2.05-3.56h4.11l2.05,3.58v.02s-2.05,3.56-2.05,3.56ZM108.03,28.32h4.02l2.01-3.5-2.01-3.5h-4.02l-2.01,3.5,2.01,3.5Z"/>
    <path class="st110" d="M7.75,24.86H3.65l-2.05-3.58,2.05-3.58h4.11l2.05,3.58-2.05,3.58ZM3.69,24.78h4.02l2.01-3.5-2.01-3.5H3.69l-2.01,3.5,2.01,3.5Z"/>
    <path class="st26" d="M20.03,24.86h-4.11l-2.05-3.58,2.05-3.58h4.11l2.05,3.58-2.05,3.58ZM15.96,24.78h4.02l2.01-3.5-2.01-3.5h-4.02l-2.01,3.5,2.01,3.5Z"/>
    <path class="st108" d="M32.3,24.86h-4.11l-2.05-3.58,2.05-3.58h4.11l2.05,3.58-2.05,3.58ZM28.24,24.78h4.02l2.01-3.5-2.01-3.5h-4.02l-2.01,3.5,2.01,3.5Z"/>
    <path class="st69" d="M44.58,24.86h-4.11l-2.05-3.58,2.05-3.58h4.11l2.05,3.58-2.05,3.58ZM40.52,24.78h4.02l2.01-3.5-2.01-3.5h-4.02l-2.01,3.5,2.01,3.5Z"/>
    <path class="st27" d="M93.68,24.86h-4.11l-2.05-3.58v-.02s2.05-3.56,2.05-3.56h4.11l2.05,3.58v.02s-2.05,3.56-2.05,3.56ZM89.62,24.78h4.02l2.01-3.5-2.01-3.5h-4.02l-2.01,3.5,2.01,3.5Z"/>
    <path class="st191" d="M105.96,24.86h-4.11l-2.05-3.58v-.02s2.05-3.56,2.05-3.56h4.11l2.05,3.58v.02s-2.05,3.56-2.05,3.56ZM101.89,24.78h4.02l2.01-3.5-2.01-3.5h-4.02l-2.01,3.5,2.01,3.5Z"/>
    <polygon class="st2" points="120 21.63 118.19 24.78 114.17 24.78 112.16 21.28 114.17 17.78 118.19 17.78 120 20.94 120 20.79 118.23 17.71 114.12 17.71 112.08 21.26 112.07 21.28 114.12 24.86 118.23 24.86 120 21.78 120 21.63"/>
    <polygon class="st160" points="1.61 14.16 0 14.16 0 14.24 1.57 14.24 3.58 17.74 1.57 21.24 0 21.24 0 21.32 1.61 21.32 3.67 17.74 1.61 14.16"/>
    <path class="st31" d="M13.89,21.32h-4.11l-2.05-3.58,2.05-3.58h4.11l2.05,3.58-2.05,3.58ZM9.83,21.24h4.02l2.01-3.5-2.01-3.5h-4.02l-2.01,3.5,2.01,3.5Z"/>
    <path class="st18" d="M26.16,21.32h-4.11l-2.05-3.58,2.05-3.58h4.11l2.05,3.58-2.05,3.58ZM22.1,21.24h4.02l2.01-3.5-2.01-3.5h-4.02l-2.01,3.5,2.01,3.5Z"/>
    <path class="st149" d="M38.44,21.32h-4.11l-2.05-3.58,2.05-3.58h4.11l2.05,3.58-2.05,3.58ZM34.38,21.24h4.02l2.01-3.5-2.01-3.5h-4.02l-2.01,3.5,2.01,3.5Z"/>
    <path class="st59" d="M87.54,21.32h-4.11l-2.05-3.58v-.02s2.05-3.56,2.05-3.56h4.11l2.05,3.58v.02s-2.05,3.56-2.05,3.56ZM83.48,21.24h4.02l2.01-3.5-2.01-3.5h-4.02l-2.01,3.5,2.01,3.5Z"/>
    <path class="st33" d="M99.82,21.32h-4.11l-2.05-3.58v-.02s2.05-3.56,2.05-3.56h4.11l2.05,3.58v.02s-2.05,3.56-2.05,3.56ZM95.75,21.24h4.02l2.01-3.5-2.01-3.5h-4.02l-2.01,3.5,2.01,3.5Z"/>
    <path class="st56" d="M112.09,21.32h-4.11l-2.05-3.58v-.02s2.05-3.56,2.05-3.56h4.11l2.05,3.58v.02s-2.05,3.56-2.05,3.56ZM108.03,21.24h4.02l2.01-3.5-2.01-3.5h-4.02l-2.01,3.5,2.01,3.5Z"/>
    <path class="st6" d="M7.75,17.78H3.65l-2.05-3.58,2.05-3.58h4.11l2.05,3.58-2.05,3.58ZM3.69,17.7h4.02l2.01-3.5-2.01-3.5H3.69l-2.01,3.5,2.01,3.5Z"/>
    <path class="st3" d="M20.03,17.78h-4.11l-2.05-3.58,2.05-3.58h4.11l2.05,3.58-2.05,3.58ZM15.96,17.7h4.02l2.01-3.5-2.01-3.5h-4.02l-2.01,3.5,2.01,3.5Z"/>
    <path class="st13" d="M32.3,17.78h-4.11l-2.05-3.58,2.05-3.58h4.11l2.05,3.58-2.05,3.58ZM28.24,17.7h4.02l2.01-3.5-2.01-3.5h-4.02l-2.01,3.5,2.01,3.5Z"/>
    <path class="st7" d="M93.68,17.78h-4.11l-2.05-3.58v-.02s2.05-3.56,2.05-3.56h4.11l2.05,3.58v.02s-2.05,3.56-2.05,3.56ZM89.62,17.7h4.02l2.01-3.5-2.01-3.5h-4.02l-2.01,3.5,2.01,3.5Z"/>
    <path class="st169" d="M105.96,17.78h-4.11l-2.05-3.58v-.02s2.05-3.56,2.05-3.56h4.11l2.05,3.58v.02s-2.05,3.56-2.05,3.56ZM101.89,17.7h4.02l2.01-3.5-2.01-3.5h-4.02l-2.01,3.5,2.01,3.5Z"/>
    <polygon class="st133" points="120 14.54 118.19 17.7 114.17 17.7 112.16 14.2 114.17 10.7 118.19 10.7 120 13.86 120 13.7 118.23 10.62 114.12 10.62 112.08 14.18 112.07 14.2 114.12 17.78 118.23 17.78 120 14.69 120 14.54"/>
    <polygon class="st163" points="1.61 7.08 0 7.08 0 7.16 1.57 7.16 3.58 10.66 1.57 14.16 0 14.16 0 14.23 1.61 14.23 3.67 10.66 1.61 7.08"/>
    <path class="st93" d="M13.89,14.23h-4.11l-2.05-3.58,2.05-3.58h4.11l2.05,3.58-2.05,3.58ZM9.83,14.16h4.02l2.01-3.5-2.01-3.5h-4.02l-2.01,3.5,2.01,3.5Z"/>
    <path class="st168" d="M26.16,14.23h-4.11l-2.05-3.58,2.05-3.58h4.11l2.05,3.58-2.05,3.58ZM22.1,14.16h4.02l2.01-3.5-2.01-3.5h-4.02l-2.01,3.5,2.01,3.5Z"/>
    <path class="st44" d="M38.44,14.23h-4.11l-2.05-3.58,2.05-3.58h4.11l2.05,3.58-2.05,3.58ZM34.38,14.16h4.02l2.01-3.5-2.01-3.5h-4.02l-2.01,3.5,2.01,3.5Z"/>
    <path class="st198" d="M99.82,14.23h-4.11l-2.05-3.58v-.02s2.05-3.56,2.05-3.56h4.11l2.05,3.58v.02s-2.05,3.56-2.05,3.56ZM95.75,14.16h4.02l2.01-3.5-2.01-3.5h-4.02l-2.01,3.5,2.01,3.5Z"/>
    <path class="st100" d="M112.09,14.23h-4.11l-2.05-3.58v-.02s2.05-3.56,2.05-3.56h4.11l2.05,3.58v.02s-2.05,3.56-2.05,3.56ZM108.03,14.16h4.02l2.01-3.5-2.01-3.5h-4.02l-2.01,3.5,2.01,3.5Z"/>
    <path class="st117" d="M7.75,10.69H3.65l-2.05-3.58,2.05-3.58h4.11l2.05,3.58-2.05,3.58ZM3.69,10.62h4.02l2.01-3.5-2.01-3.5H3.69l-2.01,3.5,2.01,3.5Z"/>
    <path class="st139" d="M20.03,10.69h-4.11l-2.05-3.58,2.05-3.58h4.11l2.05,3.58-2.05,3.58ZM15.96,10.62h4.02l2.01-3.5-2.01-3.5h-4.02l-2.01,3.5,2.01,3.5Z"/>
    <path class="st29" d="M32.3,10.69h-4.11l-2.05-3.58,2.05-3.58h4.11l2.05,3.58-2.05,3.58ZM28.24,10.62h4.02l2.01-3.5-2.01-3.5h-4.02l-2.01,3.5,2.01,3.5Z"/>
    <path class="st201" d="M44.58,10.69h-4.11l-2.05-3.58,2.05-3.58h4.11l2.05,3.58-2.05,3.58ZM40.52,10.62h4.02l2.01-3.5-2.01-3.5h-4.02l-2.01,3.5,2.01,3.5Z"/>
    <path class="st82" d="M93.68,10.69h-4.11l-2.05-3.58v-.02s2.05-3.56,2.05-3.56h4.11l2.05,3.58v.02s-2.05,3.56-2.05,3.56ZM89.62,10.62h4.02l2.01-3.5-2.01-3.5h-4.02l-2.01,3.5,2.01,3.5Z"/>
    <path class="st58" d="M105.96,10.69h-4.11l-2.05-3.58v-.02s2.05-3.56,2.05-3.56h4.11l2.05,3.58v.02s-2.05,3.56-2.05,3.56ZM101.89,10.62h4.02l2.01-3.5-2.01-3.5h-4.02l-2.01,3.5,2.01,3.5Z"/>
    <polygon class="st67" points="120 7.46 118.19 10.62 114.17 10.62 112.16 7.12 114.17 3.62 118.19 3.62 120 6.77 120 6.62 118.23 3.54 114.12 3.54 112.08 7.1 112.07 7.12 114.12 10.69 118.23 10.69 120 7.61 120 7.46"/>
    <polygon class="st106" points="1.61 0 0 0 0 .08 1.57 .08 3.58 3.58 1.57 7.08 0 7.08 0 7.15 1.61 7.15 3.67 3.58 1.61 0"/>
    <path class="st176" d="M13.89,7.15h-4.11l-2.05-3.58L9.78,0h4.11l2.05,3.58-2.05,3.58ZM9.83,7.08h4.02l2.01-3.5L13.85.08h-4.02l-2.01,3.5,2.01,3.5Z"/>
    <path class="st146" d="M26.16,7.15h-4.11l-2.05-3.58L22.06,0h4.11l2.05,3.58-2.05,3.58ZM22.1,7.08h4.02l2.01-3.5L26.12.08h-4.02l-2.01,3.5,2.01,3.5Z"/>
    <path class="st170" d="M38.44,7.15h-4.11l-2.05-3.58L34.33,0h4.11l2.05,3.58-2.05,3.58ZM34.38,7.08h4.02l2.01-3.5L38.4.08h-4.02l-2.01,3.5,2.01,3.5Z"/>
    <path class="st129" d="M87.54,7.15h-4.11l-2.05-3.58v-.02S83.44,0,83.44,0h4.11l2.05,3.58v.02s-2.05,3.56-2.05,3.56ZM83.48,7.08h4.02l2.01-3.5-2.01-3.5h-4.02l-2.01,3.5,2.01,3.5Z"/>
    <path class="st66" d="M99.82,7.15h-4.11l-2.05-3.58v-.02S95.71,0,95.71,0h4.11l2.05,3.58v.02s-2.05,3.56-2.05,3.56ZM95.75,7.08h4.02l2.01-3.5-2.01-3.5h-4.02l-2.01,3.5,2.01,3.5Z"/>
    <path class="st30" d="M112.09,7.15h-4.11l-2.05-3.58v-.02S107.99,0,107.99,0h4.11l2.05,3.58v.02s-2.05,3.56-2.05,3.56ZM108.03,7.08h4.02l2.01-3.5-2.01-3.5h-4.02l-2.01,3.5,2.01,3.5Z"/>
    <polygon class="st162" points="9.7 0 9.72 .04 7.71 3.54 3.69 3.54 1.68 .04 1.7 0 1.61 0 1.59 .04 3.65 3.61 7.75 3.61 9.8 .04 9.78 0 9.7 0"/>
    <polygon class="st177" points="21.97 0 21.99 .04 19.98 3.54 15.96 3.54 13.95 .04 13.98 0 13.89 0 13.87 .04 15.92 3.61 20.03 3.61 22.08 .04 22.06 0 21.97 0"/>
    <polygon class="st134" points="34.25 0 34.27 .04 32.26 3.54 28.24 3.54 26.23 .04 26.25 0 26.16 0 26.14 .04 28.2 3.61 32.3 3.61 34.36 .04 34.34 0 34.25 0"/>
    <polygon class="st128" points="46.52 0 46.54 .04 44.53 3.54 40.52 3.54 38.51 .04 38.53 0 38.44 0 38.42 .04 40.47 3.61 44.58 3.61 46.63 .04 46.61 0 46.52 0"/>
    <polygon class="st121" points="83.35 0 83.37 .04 81.36 3.54 77.34 3.54 75.33 .04 75.35 0 75.27 0 75.26 .02 75.25 .04 77.3 3.61 81.4 3.61 83.45 .06 83.46 .04 83.44 0 83.35 0"/>
    <polygon class="st34" points="95.63 0 95.65 .04 93.64 3.54 89.62 3.54 87.61 .04 87.63 0 87.54 0 87.53 .02 87.52 .04 89.57 3.61 93.68 3.61 95.72 .06 95.73 .04 95.71 0 95.63 0"/>
    <polygon class="st123" points="107.9 0 107.92 .04 105.91 3.54 101.89 3.54 99.88 .04 99.9 0 99.82 0 99.81 .02 99.8 .04 101.85 3.61 105.96 3.61 108 .06 108.01 .04 107.99 0 107.9 0"/>
    <polygon class="st42" points="120 .38 118.19 3.54 114.17 3.54 112.16 .04 112.18 0 112.09 0 112.08 .02 112.07 .04 114.12 3.61 118.23 3.61 120 .53 120 .38"/>
    <path class="st157" d="M89.91,60c-.07-.1-.18-.16-.31-.16s-.24.06-.31.16h.62Z"/>
    <path class="st35" d="M32.6,60c-.07-.08-.16-.13-.27-.13s-.21.05-.28.13h.55Z"/>
    <path class="st8" d="M114.32,60c-.06-.05-.13-.08-.21-.08s-.16.03-.21.08h.43Z"/>
    <path class="st97" d="M112.43,56.69c0,.2-.16.36-.35.36s-.35-.16-.35-.36.16-.36.35-.36.35.16.35.36Z"/>
    <path class="st99" d="M106.25,60c-.07-.08-.16-.13-.27-.13s-.21.05-.27.13h.55Z"/>
    <path class="st132" d="M96.17,56.69c0,.27-.21.48-.48.48s-.48-.22-.48-.48.21-.48.48-.48.48.21.48.48Z"/>
    <path class="st25" d="M89.95,60c-.08-.12-.21-.2-.36-.2s-.28.08-.36.2h.71Z"/>
    <path class="st107" d="M114.52,53.15c0,.21-.17.37-.37.37s-.37-.17-.37-.37.17-.37.37-.37.37.17.37.37Z"/>
    <path class="st9" d="M26.51,56.69c0,.21-.17.37-.37.37s-.37-.17-.37-.37.17-.37.37-.37.37.17.37.37Z"/>
    <path class="st115" d="M34.74,56.69c0,.21-.17.39-.39.39s-.39-.17-.39-.39.17-.39.39-.39.39.17.39.39Z"/>
    <path class="st102" d="M81.76,53.15c0,.18-.15.33-.33.33s-.33-.15-.33-.33.15-.33.33-.33.33.15.33.33Z"/>
    <path class="st137" d="M94.14,46.07c0,.27-.22.49-.48.49s-.48-.22-.48-.49.22-.49.48-.49.48.22.48.49Z"/>
    <path class="st104" d="M106.28,53.15c0,.19-.15.35-.35.35s-.34-.16-.34-.35.15-.35.34-.35.35.16.35.35Z"/>
    <path class="st175" d="M120,49.42c-.04.05-.07.12-.07.19s.03.14.07.19v-.38Z"/>
    <path class="st62" d="M14.31,42.53c0,.24-.2.44-.44.44s-.44-.2-.44-.44.2-.44.44-.44.44.2.44.44Z"/>
    <path class="st194" d="M26.6,42.53c0,.25-.2.46-.45.46s-.46-.21-.46-.46.2-.46.46-.46.45.21.45.46Z"/>
    <path class="st156" d="M96.08,49.61c0,.19-.15.35-.34.35s-.34-.16-.34-.35.15-.35.34-.35.34.16.34.35Z"/>
    <path class="st161" d="M114.45,46.07c0,.2-.16.35-.35.35s-.35-.16-.35-.35.16-.35.35-.35.35.16.35.35Z"/>
    <path class="st103" d="M108.39,42.53c0,.21-.17.38-.38.38s-.38-.17-.38-.38.17-.38.38-.38.38.17.38.38Z"/>
    <path class="st89" d="M8.11,46.07c0,.21-.17.38-.38.38s-.38-.17-.38-.38.17-.38.38-.38.38.17.38.38Z"/>
    <path class="st73" d="M20.35,46.07c0,.19-.15.35-.34.35s-.34-.16-.34-.35.15-.35.34-.35.34.16.34.35Z"/>
    <path class="st178" d="M16.29,46.07c0,.19-.15.35-.34.35s-.34-.16-.34-.35.15-.35.34-.35.34.16.34.35Z"/>
    <path class="st173" d="M40.82,38.99c0,.18-.14.33-.32.33s-.32-.15-.32-.33.15-.33.32-.33.32.15.32.33Z"/>
    <path class="st125" d="M112.48,42.53c0,.2-.16.37-.37.37s-.37-.17-.37-.37.16-.37.37-.37.37.16.37.37Z"/>
    <path class="st153" d="M14.19,35.45c0,.18-.14.33-.32.33s-.32-.15-.32-.33.14-.33.32-.33.32.15.32.33Z"/>
    <path class="st85" d="M26.59,42.52c0,.25-.2.45-.45.45s-.45-.2-.45-.45.2-.45.45-.45.45.2.45.45Z"/>
    <path class="st113" d="M28.58,38.99c0,.23-.18.41-.4.41s-.4-.18-.4-.41.18-.41.4-.41.4.18.4.41Z"/>
    <path class="st138" d="M26.52,35.45c0,.21-.17.38-.38.38s-.38-.17-.38-.38.17-.38.38-.38.38.17.38.38Z"/>
    <path class="st84" d="M22.46,42.52c0,.21-.17.38-.38.38s-.38-.17-.38-.38.17-.38.38-.38.38.17.38.38Z"/>
    <path class="st32" d="M102.25,38.99c0,.23-.19.42-.42.42s-.42-.19-.42-.42.19-.42.42-.42.42.19.42.42Z"/>
    <path class="st72" d="M22.36,35.44c0,.18-.15.33-.33.33s-.33-.15-.33-.33.15-.33.33-.33.33.15.33.33Z"/>
    <path class="st112" d="M28.61,31.91c0,.22-.17.39-.39.39s-.39-.17-.39-.39.17-.39.39-.39.39.18.39.39Z"/>
    <path class="st53" d="M83.8,35.44c0,.21-.17.39-.39.39s-.39-.17-.39-.39.17-.39.39-.39.39.17.39.39Z"/>
    <path class="st195" d="M87.93,35.44c0,.21-.16.37-.37.37s-.37-.17-.37-.37.16-.37.37-.37.37.17.37.37Z"/>
    <path class="st158" d="M106.22,38.98c0,.16-.13.29-.29.29s-.29-.13-.29-.29.13-.29.29-.29.29.13.29.29Z"/>
    <path class="st164" d="M102.33,31.91c0,.25-.21.46-.46.46s-.46-.21-.46-.46.2-.46.46-.46.46.21.46.46Z"/>
    <path class="st10" d="M100.29,35.44c0,.25-.2.45-.45.45s-.45-.2-.45-.45.2-.45.45-.45.45.2.45.45Z"/>
    <path class="st202" d="M14.29,28.37c0,.23-.19.43-.42.43s-.42-.19-.42-.43.19-.43.42-.43.42.19.42.43Z"/>
    <path class="st150" d="M26.53,35.44c0,.21-.17.39-.38.39s-.38-.17-.38-.39.17-.39.38-.39.38.17.38.39Z"/>
    <path class="st57" d="M20.44,31.9c0,.22-.17.39-.39.39s-.39-.17-.39-.39.17-.39.39-.39.39.17.39.39Z"/>
    <path class="st75" d="M102.21,31.9c0,.21-.17.38-.38.38s-.38-.17-.38-.38.17-.38.38-.38.38.17.38.38Z"/>
    <path class="st105" d="M112.42,28.37c0,.19-.15.35-.35.35s-.34-.16-.34-.35.15-.35.34-.35.35.16.35.35Z"/>
    <path class="st98" d="M20.37,24.82c0,.2-.16.36-.36.36s-.36-.16-.36-.36.16-.36.36-.36.36.16.36.36Z"/>
    <path class="st16" d="M34.72,28.36c0,.23-.18.41-.41.41s-.41-.18-.41-.41.18-.41.41-.41.41.18.41.41Z"/>
    <path class="st45" d="M40.96,31.9c0,.26-.21.47-.46.47s-.46-.21-.46-.47.21-.47.46-.47.46.21.46.47Z"/>
    <path class="st39" d="M114.56,31.9c0,.23-.18.41-.41.41s-.41-.19-.41-.41.18-.41.41-.41.41.18.41.41Z"/>
    <path class="st145" d="M14.26,28.36c0,.22-.17.39-.39.39s-.39-.18-.39-.39.17-.39.39-.39.39.17.39.39Z"/>
    <path class="st95" d="M34.7,28.36c0,.19-.16.35-.35.35s-.35-.16-.35-.35.16-.35.35-.35.35.16.35.35Z"/>
    <path class="st79" d="M44.99,24.82c0,.22-.18.4-.39.4s-.39-.18-.39-.4.18-.4.39-.4.39.18.39.4Z"/>
    <path class="st80" d="M102.2,24.82c0,.21-.17.37-.37.37s-.37-.17-.37-.37.17-.37.37-.37.37.17.37.37Z"/>
    <path class="st171" d="M96.08,28.36c0,.19-.16.35-.35.35s-.35-.16-.35-.35.16-.35.35-.35.35.16.35.35Z"/>
    <circle class="st152" cx="108.01" cy="21.28" r=".42"/>
    <path class="st140" d="M4.06,17.74c0,.22-.18.4-.39.4s-.39-.18-.39-.4.18-.4.39-.4.39.18.39.4Z"/>
    <path class="st154" d="M20.44,17.74c0,.24-.2.44-.44.44s-.44-.2-.44-.44.2-.44.44-.44.44.2.44.44Z"/>
    <path class="st126" d="M32.57,24.82c0,.16-.13.3-.29.3s-.29-.13-.29-.3.13-.3.29-.3.29.13.29.3Z"/>
    <circle class="st37" cx="89.6" cy="24.82" r=".34"/>
    <path class="st131" d="M106.35,24.82c0,.23-.19.42-.41.42s-.41-.19-.41-.42.18-.42.41-.42.41.19.41.42Z"/>
    <path class="st190" d="M118.58,24.82c0,.21-.17.37-.37.37s-.37-.17-.37-.37.17-.37.37-.37.37.17.37.37Z"/>
    <path class="st46" d="M112.55,21.28c0,.24-.19.44-.43.44s-.43-.2-.43-.44.19-.44.43-.44.43.2.43.44Z"/>
    <path class="st118" d="M20.37,17.74c0,.18-.14.32-.32.32s-.32-.14-.32-.32.14-.32.32-.32.32.14.32.32Z"/>
    <path class="st43" d="M22.46,21.28c0,.21-.17.38-.37.38s-.37-.17-.37-.38.17-.38.37-.38.37.17.37.38Z"/>
    <path class="st68" d="M89.97,17.74c0,.23-.19.42-.42.42s-.42-.19-.42-.42.19-.42.42-.42.42.19.42.42Z"/>
    <path class="st199" d="M87.83,14.2c0,.17-.14.31-.31.31s-.31-.14-.31-.31.14-.31.31-.31.31.14.31.31Z"/>
    <path class="st181" d="M81.81,17.74c0,.21-.17.38-.38.38s-.38-.17-.38-.38.17-.38.38-.38.38.17.38.38Z"/>
    <path class="st90" d="M100.09,14.2c0,.16-.13.3-.3.3s-.3-.13-.3-.3.13-.3.3-.3.3.13.3.3Z"/>
    <path class="st40" d="M112.44,21.28c0,.21-.17.38-.37.38s-.37-.17-.37-.38.17-.37.37-.37.37.17.37.37Z"/>
    <path class="st155" d="M108.43,14.2c0,.23-.19.42-.42.42s-.42-.19-.42-.42.19-.42.42-.42.42.19.42.42Z"/>
    <circle class="st144" cx="108.01" cy="21.28" r=".35"/>
    <path class="st143" d="M8.14,17.74c0,.23-.18.41-.41.41s-.41-.19-.41-.41.18-.41.41-.41.41.18.41.41Z"/>
    <path class="st19" d="M10.07,14.2c0,.17-.14.31-.31.31s-.31-.14-.31-.31.14-.31.31-.31.31.14.31.31Z"/>
    <path class="st49" d="M4.03,17.74c0,.2-.16.36-.36.36s-.36-.16-.36-.36.16-.36.36-.36.36.16.36.36Z"/>
    <path class="st38" d="M20.42,10.66c0,.23-.18.41-.41.41s-.41-.18-.41-.41.18-.41.41-.41.41.18.41.41Z"/>
    <path class="st11" d="M32.67,10.66c0,.22-.17.39-.39.39s-.39-.18-.39-.39.17-.39.39-.39.39.18.39.39Z"/>
    <path class="st54" d="M40.9,17.74c0,.23-.18.41-.41.41s-.41-.18-.41-.41.18-.41.41-.41.41.18.41.41Z"/>
    <path class="st192" d="M81.74,17.74c0,.2-.16.35-.35.35s-.35-.16-.35-.35.16-.35.35-.35.35.16.35.35Z"/>
    <path class="st76" d="M102.32,17.74c0,.25-.2.45-.45.45s-.45-.2-.45-.45.2-.45.45-.45.45.2.45.45Z"/>
    <path class="st96" d="M1.94,14.2c0,.19-.15.35-.35.35s-.35-.16-.35-.35.15-.35.35-.35.35.16.35.35Z"/>
    <path class="st120" d="M4.01,10.66c0,.22-.17.39-.39.39s-.39-.17-.39-.39.17-.39.39-.39.39.17.39.39Z"/>
    <path class="st77" d="M96.07,14.2c0,.19-.15.34-.33.34s-.33-.15-.33-.34.15-.34.33-.34.33.15.33.34Z"/>
    <path class="st12" d="M112.51,14.2c0,.24-.19.44-.43.44s-.43-.2-.43-.44.19-.44.43-.44.43.2.43.44Z"/>
    <path class="st122" d="M114.43,10.66c0,.18-.15.33-.33.33s-.33-.15-.33-.33.15-.33.33-.33.33.15.33.33Z"/>
    <path class="st22" d="M3.98,3.58c0,.17-.14.31-.31.31s-.31-.14-.31-.31.14-.31.31-.31.31.14.31.31Z"/>
    <path class="st203" d="M14.31,7.12c0,.22-.18.4-.4.4s-.4-.18-.4-.4.18-.4.4-.4.4.18.4.4Z"/>
    <path class="st124" d="M28.61,3.58c0,.22-.18.4-.4.4s-.4-.18-.4-.4.18-.4.4-.4.4.18.4.4Z"/>
    <path class="st172" d="M44.94,3.58c0,.21-.17.38-.38.38s-.38-.17-.38-.38.17-.38.38-.38.38.17.38.38Z"/>
    <path class="st136" d="M40.89,10.66c0,.22-.18.4-.4.4s-.4-.18-.4-.4.18-.4.4-.4.4.18.4.4Z"/>
    <path class="st52" d="M114.62,3.58c0,.26-.21.47-.47.47s-.47-.21-.47-.47.21-.47.47-.47.47.21.47.47Z"/>
    <path class="st20" d="M4.04,3.58c0,.23-.19.42-.42.42s-.42-.19-.42-.42.19-.42.42-.42.42.19.42.42Z"/>
    <path class="st182" d="M8.15,3.58c0,.21-.17.37-.37.37s-.37-.17-.37-.37.17-.37.37-.37.37.17.37.37Z"/>
    <path class="st127" d="M21.73,0s0,.03,0,.04c0,.2.16.36.36.36s.36-.16.36-.36c0-.01,0-.03,0-.04h-.71Z"/>
    <path class="st197" d="M46.26,0s0,.03,0,.04c0,.21.17.38.37.38s.37-.17.37-.38c0-.01,0-.03,0-.04h-.74Z"/>
    <path class="st119" d="M107.61,0s0,.03,0,.04c0,.22.18.4.4.4s.4-.18.4-.4c0-.01,0-.03,0-.04h-.79Z"/>
    <path class="st142" d="M13.5,0s0,.02,0,.04c0,.23.18.41.41.41s.41-.19.41-.41c0-.01,0-.02,0-.04h-.81Z"/>
  </g>
</svg>
