<?xml version="1.0" encoding="UTF-8"?>
<svg id="Layer_1" xmlns="http://www.w3.org/2000/svg" version="1.1" viewBox="0 0 216 216">
  <!-- Generator: Adobe Illustrator 30.4.0, SVG Export Plug-In . SVG Version: 2.1.4 Build 226)  -->
  <defs>
    <style>
      .st0 {
        opacity: .24;
      }

      .st0, .st1, .st2, .st3, .st4, .st5, .st6, .st7, .st8, .st9, .st10, .st11, .st12, .st13, .st14, .st15, .st16, .st17, .st18, .st19, .st20, .st21, .st22, .st23, .st24, .st25, .st26, .st27, .st28, .st29, .st30, .st31, .st32, .st33, .st34, .st35, .st36, .st37, .st38, .st39, .st40, .st41, .st42, .st43, .st44, .st45, .st46, .st47, .st48, .st49, .st50 {
        fill: #a8aaad;
        isolation: isolate;
      }

      .st1 {
        opacity: .25;
      }

      .st2 {
        opacity: .3;
      }

      .st3 {
        opacity: .28;
      }

      .st4 {
        opacity: .29;
      }

      .st5 {
        opacity: .32;
      }

      .st6 {
        opacity: .22;
      }

      .st7 {
        opacity: .23;
      }

      .st8 {
        opacity: .47;
      }

      .st9 {
        opacity: .49;
      }

      .st10 {
        opacity: .48;
      }

      .st11 {
        opacity: .51;
      }

      .st12 {
        opacity: .5;
      }

      .st13 {
        opacity: .53;
      }

      .st14 {
        opacity: .57;
      }

      .st15 {
        opacity: .55;
      }

      .st16 {
        opacity: .6;
      }

      .st17 {
        opacity: .56;
      }

      .st18 {
        opacity: .58;
      }

      .st19 {
        opacity: .64;
      }

      .st20 {
        opacity: .67;
      }

      .st21 {
        opacity: .65;
      }

      .st22 {
        opacity: .35;
      }

      .st23 {
        opacity: .36;
      }

      .st24 {
        opacity: .38;
      }

      .st25 {
        opacity: .37;
      }

      .st26 {
        opacity: .4;
      }

      .st27 {
        opacity: .44;
      }

      .st28 {
        opacity: .43;
      }

      .st29 {
        opacity: .46;
      }

      .st30 {
        opacity: .45;
      }

      .st31 {
        opacity: .95;
      }

      .st32 {
        opacity: .94;
      }

      .st33 {
        opacity: .98;
      }

      .st34 {
        opacity: .96;
      }

      .st35 {
        opacity: .99;
      }

      .st36 {
        opacity: .7;
      }

      .st37 {
        opacity: .68;
      }

      .st38 {
        opacity: .73;
      }

      .st39 {
        opacity: .71;
      }

      .st40 {
        opacity: .76;
      }

      .st41 {
        opacity: .75;
      }

      .st42 {
        opacity: .74;
      }

      .st43 {
        opacity: .78;
      }

      .st44 {
        opacity: .82;
      }

      .st45 {
        opacity: .85;
      }

      .st46 {
        opacity: .81;
      }

      .st47 {
        opacity: .89;
      }

      .st48 {
        opacity: .88;
      }

      .st49 {
        opacity: .86;
      }

      .st50 {
        opacity: .92;
      }

      .st51 {
        fill: #e6e7e7;
      }
    </style>
  </defs>
  <path class="st51" d="M77.36,201.21h-15.31l-7.64-13.34,7.64-13.34h15.31l7.64,13.34s-7.64,13.34-7.64,13.34ZM62.23,200.91h14.98l7.49-13.04-7.49-13.04h-14.98l-7.49,13.04,7.49,13.04Z"/>
  <path class="st51" d="M123.11,201.21h-15.31l-7.64-13.34,7.64-13.34h15.31l7.64,13.34s-7.64,13.34-7.64,13.34ZM107.94,200.91h14.98l7.49-13.04-7.49-13.04h-14.98l-7.49,13.04,7.49,13.04Z"/>
  <path class="st51" d="M54.48,188.02h-15.31l-7.64-13.34,7.64-13.34h15.31l7.64,13.34s-7.64,13.34-7.64,13.34ZM39.36,187.72h14.98l7.49-13.04-7.49-13.04h-14.98l-7.49,13.04,7.49,13.04Z"/>
  <path class="st51" d="M100.23,188.02h-15.31l-7.64-13.34,7.64-13.34h15.31l7.64,13.34s-7.64,13.34-7.64,13.34ZM85.11,187.72h14.98l7.49-13.04-7.49-13.04h-14.98l-7.49,13.04,7.49,13.04Z"/>
  <path class="st51" d="M145.98,188.02h-15.31l-7.64-13.34,7.64-13.34h15.31l7.64,13.34s-7.64,13.34-7.64,13.34ZM130.82,187.72h14.98l7.49-13.04-7.49-13.04h-14.98l-7.49,13.04s7.49,13.04,7.49,13.04Z"/>
  <path class="st51" d="M77.36,174.8h-15.31l-7.64-13.34,7.64-13.34h15.31l7.64,13.34-7.64,13.34ZM62.23,174.54h14.98l7.49-13.04-7.49-13.04h-14.98l-7.49,13.04,7.49,13.04Z"/>
  <path class="st51" d="M123.11,174.8h-15.31l-7.64-13.34,7.64-13.34h15.31l7.64,13.34-7.64,13.34ZM107.94,174.54h14.98l7.49-13.04-7.49-13.04h-14.98l-7.49,13.04,7.49,13.04Z"/>
  <path class="st51" d="M54.48,161.61h-15.31l-7.64-13.34,7.64-13.34h15.31l7.64,13.34-7.64,13.34ZM39.36,161.35h14.98l7.49-13.04-7.49-13.04h-14.98l-7.49,13.04,7.49,13.04Z"/>
  <path class="st51" d="M100.23,161.61h-15.31l-7.64-13.34,7.64-13.34h15.31l7.64,13.34-7.64,13.34ZM85.11,161.35h14.98l7.49-13.04-7.49-13.04h-14.98l-7.49,13.04,7.49,13.04Z"/>
  <path class="st51" d="M145.98,161.61h-15.31l-7.64-13.34,7.64-13.34h15.31l7.64,13.34-7.64,13.34ZM130.82,161.35h14.98l7.49-13.04-7.49-13.04h-14.98l-7.49,13.04s7.49,13.04,7.49,13.04Z"/>
  <path class="st51" d="M77.36,148.42h-15.31l-7.64-13.34,7.64-13.34h15.31l7.64,13.34-7.64,13.34ZM62.23,148.16h14.98l7.49-13.04-7.49-13.04h-14.98l-7.49,13.04,7.49,13.04Z"/>
  <path class="st51" d="M123.11,148.42h-15.31l-7.64-13.34,7.64-13.34h15.31l7.64,13.34-7.64,13.34ZM107.94,148.16h14.98l7.49-13.04-7.49-13.04h-14.98l-7.49,13.04,7.49,13.04Z"/>
  <path class="st51" d="M54.48,135.23h-15.31l-7.64-13.34,7.64-13.34h15.31l7.64,13.34-7.64,13.34ZM39.36,134.97h14.98l7.49-13.04-7.49-13.04h-14.98l-7.49,13.04,7.49,13.04Z"/>
  <path class="st51" d="M100.23,135.23h-15.31l-7.64-13.34,7.64-13.34h15.31l7.64,13.34-7.64,13.34ZM85.11,134.97h14.98l7.49-13.04-7.49-13.04h-14.98l-7.49,13.04,7.49,13.04Z"/>
  <path class="st51" d="M145.98,135.23h-15.31l-7.64-13.34,7.64-13.34h15.31l7.64,13.34-7.64,13.34ZM130.82,134.97h14.98l7.49-13.04-7.49-13.04h-14.98l-7.49,13.04s7.49,13.04,7.49,13.04Z"/>
  <path class="st51" d="M77.36,122.04h-15.31l-7.64-13.34,7.64-13.34h15.31l7.64,13.34-7.64,13.34ZM62.23,121.78h14.98l7.49-13.04-7.49-13.04h-14.98l-7.49,13.04,7.49,13.04Z"/>
  <path class="st51" d="M123.11,122.04h-15.31l-7.64-13.34,7.64-13.34h15.31l7.64,13.34-7.64,13.34ZM107.94,121.78h14.98l7.49-13.04-7.49-13.04h-14.98l-7.49,13.04,7.49,13.04Z"/>
  <path class="st51" d="M54.48,108.86h-15.31l-7.64-13.34,7.64-13.34h15.31l7.64,13.34-7.64,13.34ZM39.36,108.56h14.98l7.49-13.04-7.49-13.04h-14.98l-7.49,13.04,7.49,13.04Z"/>
  <path class="st51" d="M100.23,108.86h-15.31l-7.64-13.34,7.64-13.34h15.31l7.64,13.34-7.64,13.34ZM85.11,108.56h14.98l7.49-13.04-7.49-13.04h-14.98l-7.49,13.04,7.49,13.04Z"/>
  <path class="st51" d="M145.98,108.86h-15.31l-7.64-13.34,7.64-13.34h15.31l7.64,13.34-7.64,13.34ZM130.82,108.56h14.98l7.49-13.04-7.49-13.04h-14.98l-7.49,13.04s7.49,13.04,7.49,13.04Z"/>
  <path class="st51" d="M77.36,95.67h-15.31l-7.64-13.34,7.64-13.34h15.31l7.64,13.34-7.64,13.34ZM62.23,95.37h14.98l7.49-13.04-7.49-13.04h-14.98l-7.49,13.04,7.49,13.04Z"/>
  <path class="st51" d="M123.11,95.67h-15.31l-7.64-13.34,7.64-13.34h15.31l7.64,13.34-7.64,13.34ZM107.94,95.37h14.98l7.49-13.04-7.49-13.04h-14.98l-7.49,13.04,7.49,13.04Z"/>
  <path class="st51" d="M54.48,82.48h-15.31l-7.64-13.34,7.64-13.34h15.31l7.64,13.34-7.64,13.34ZM39.36,82.18h14.98l7.49-13.04-7.49-13.04h-14.98l-7.49,13.04,7.49,13.04Z"/>
  <path class="st51" d="M100.23,82.48h-15.31l-7.64-13.34,7.64-13.34h15.31l7.64,13.34-7.64,13.34ZM85.11,82.18h14.98l7.49-13.04-7.49-13.04h-14.98l-7.49,13.04,7.49,13.04Z"/>
  <path class="st51" d="M145.98,82.48h-15.31l-7.64-13.34,7.64-13.34h15.31l7.64,13.34-7.64,13.34ZM130.82,82.18h14.98l7.49-13.04-7.49-13.04h-14.98l-7.49,13.04s7.49,13.04,7.49,13.04Z"/>
  <path class="st51" d="M77.36,69.29h-15.31l-7.64-13.34,7.64-13.34h15.31l7.64,13.34-7.64,13.34ZM62.23,68.99h14.98l7.49-13.04-7.49-13.04h-14.98l-7.49,13.04,7.49,13.04Z"/>
  <path class="st51" d="M123.11,69.29h-15.31l-7.64-13.34,7.64-13.34h15.31l7.64,13.34-7.64,13.34ZM107.94,68.99h14.98l7.49-13.04-7.49-13.04h-14.98l-7.49,13.04,7.49,13.04Z"/>
  <path class="st51" d="M145.98,56.1h-15.31l-7.64-13.34,7.64-13.34h15.31l7.64,13.34-7.64,13.34ZM130.82,55.81h14.98l7.49-13.04-7.49-13.04h-14.98l-7.49,13.04s7.49,13.04,7.49,13.04Z"/>
  <path class="st19" d="M138.49,201.14h-15.31l-7.64-13.34,7.64-13.34h15.31l7.64,13.34-7.64,13.34ZM123.37,200.88h14.98l7.49-13.04-7.49-13.04h-14.98l-7.49,13.04s7.49,13.04,7.49,13.04Z"/>
  <path class="st49" d="M69.91,187.95h-15.31l-7.64-13.34,7.64-13.34h15.31l7.64,13.34s-7.64,13.34-7.64,13.34ZM54.78,187.69h14.98l7.49-13.04-7.49-13.04h-14.98l-7.49,13.04,7.49,13.04Z"/>
  <path class="st34" d="M115.62,187.95h-15.31l-7.64-13.34,7.64-13.34h15.31l7.64,13.34-7.64,13.34ZM100.49,187.69h14.98l7.49-13.04-7.49-13.04h-14.98l-7.49,13.04,7.49,13.04Z"/>
  <path class="st24" d="M47.03,174.76h-15.27l-7.64-13.34,7.64-13.34h15.31l7.64,13.34-7.64,13.34h-.04ZM31.91,174.5h14.98l7.49-13.04-7.49-13.04h-14.98l-7.49,13.04,7.49,13.04Z"/>
  <path class="st36" d="M92.78,174.76h-15.31l-7.64-13.34,7.64-13.34h15.31l7.64,13.34-7.64,13.34ZM77.62,174.5h14.98l7.49-13.04-7.49-13.04h-14.98l-7.49,13.04s7.49,13.04,7.49,13.04Z"/>
  <path class="st31" d="M138.49,174.76h-15.31l-7.64-13.34,7.64-13.34h15.31l7.64,13.34-7.64,13.34ZM123.37,174.5h14.98l7.49-13.04-7.49-13.04h-14.98l-7.49,13.04s7.49,13.04,7.49,13.04Z"/>
  <path class="st38" d="M69.91,161.57h-15.31l-7.64-13.34,7.64-13.34h15.31l7.64,13.34s-7.64,13.34-7.64,13.34ZM54.78,161.31h14.98l7.49-13.04-7.49-13.04h-14.98l-7.49,13.04,7.49,13.04Z"/>
  <path class="st46" d="M115.62,161.57h-15.31l-7.64-13.34,7.64-13.34h15.31l7.64,13.34s-7.64,13.34-7.64,13.34ZM100.49,161.31h14.98l7.49-13.04-7.49-13.04h-14.98l-7.49,13.04,7.49,13.04Z"/>
  <path class="st0" d="M161.37,161.57h-15.31l-7.64-13.34,7.64-13.34h15.31l7.64,13.34s-7.64,13.34-7.64,13.34ZM146.24,161.31h14.98l7.49-13.04-7.49-13.04h-14.98l-7.49,13.04,7.49,13.04Z"/>
  <path class="st1" d="M47.03,148.38h-15.27l-7.64-13.34,7.64-13.34h15.31l7.64,13.34-7.64,13.34h-.04ZM31.91,148.12h14.98l7.49-13.04-7.49-13.04h-14.98l-7.49,13.04,7.49,13.04Z"/>
  <path class="st31" d="M92.78,148.38h-15.31l-7.64-13.34,7.64-13.34h15.31l7.64,13.34s-7.64,13.34-7.64,13.34ZM77.62,148.12h14.98l7.49-13.04-7.49-13.04h-14.98l-7.49,13.04s7.49,13.04,7.49,13.04Z"/>
  <path class="st25" d="M138.49,148.38h-15.31l-7.64-13.34,7.64-13.34h15.31l7.64,13.34s-7.64,13.34-7.64,13.34ZM123.37,148.12h14.98l7.49-13.04-7.49-13.04h-14.98l-7.49,13.04s7.49,13.04,7.49,13.04Z"/>
  <path class="st31" d="M69.91,135.2h-15.31l-7.64-13.34,7.64-13.34h15.31l7.64,13.34s-7.64,13.34-7.64,13.34ZM54.78,134.9h14.98l7.49-13.04-7.49-13.04h-14.98l-7.49,13.04,7.49,13.04Z"/>
  <path class="st13" d="M115.62,135.2h-15.31l-7.64-13.34,7.64-13.34h15.31l7.64,13.34-7.64,13.34ZM100.49,134.9h14.98l7.49-13.04-7.49-13.04h-14.98l-7.49,13.04,7.49,13.04Z"/>
  <path class="st32" d="M161.37,135.2h-15.31l-7.64-13.34,7.64-13.34h15.31l7.64,13.34-7.64,13.34ZM146.24,134.9h14.98l7.49-13.04-7.49-13.04h-14.98l-7.49,13.04,7.49,13.04Z"/>
  <path class="st12" d="M47.03,122.01h-15.27l-7.64-13.34,7.64-13.34h15.31l7.64,13.34-7.64,13.34h-.04ZM31.91,121.71h14.98l7.49-13.04-7.49-13.04h-14.98l-7.49,13.04,7.49,13.04Z"/>
  <path class="st3" d="M92.78,122.01h-15.31l-7.64-13.34,7.64-13.34h15.31l7.64,13.34-7.64,13.34ZM77.62,121.71h14.98l7.49-13.04-7.49-13.04h-14.98l-7.49,13.04s7.49,13.04,7.49,13.04Z"/>
  <path class="st29" d="M138.49,122.01h-15.31l-7.64-13.34,7.64-13.34h15.31l7.64,13.34-7.64,13.34ZM123.37,121.71h14.98l7.49-13.04-7.49-13.04h-14.98l-7.49,13.04s7.49,13.04,7.49,13.04Z"/>
  <path class="st7" d="M69.91,108.82h-15.31l-7.64-13.34,7.64-13.34h15.31l7.64,13.34s-7.64,13.34-7.64,13.34ZM54.78,108.52h14.98l7.49-13.04-7.49-13.04h-14.98l-7.49,13.04,7.49,13.04Z"/>
  <path class="st17" d="M115.62,108.82h-15.31l-7.64-13.34,7.64-13.34h15.31l7.64,13.34-7.64,13.34ZM100.49,108.52h14.98l7.49-13.04-7.49-13.04h-14.98l-7.49,13.04,7.49,13.04Z"/>
  <path class="st7" d="M47.03,95.63h-15.27l-7.64-13.34,7.64-13.34h15.31l7.64,13.34-7.64,13.34h-.04ZM31.91,95.33h14.98l7.49-13.04-7.49-13.04h-14.98l-7.49,13.04,7.49,13.04Z"/>
  <path class="st50" d="M92.78,95.63h-15.31l-7.64-13.34,7.64-13.34h15.31l7.64,13.34-7.64,13.34ZM77.62,95.33h14.98l7.49-13.04-7.49-13.04h-14.98l-7.49,13.04s7.49,13.04,7.49,13.04Z"/>
  <path class="st8" d="M138.49,95.63h-15.31l-7.64-13.34,7.64-13.34h15.31l7.64,13.34-7.64,13.34ZM123.37,95.33h14.98l7.49-13.04-7.49-13.04h-14.98l-7.49,13.04s7.49,13.04,7.49,13.04Z"/>
  <path class="st29" d="M184.24,95.63h-15.31l-7.64-13.34,7.64-13.34h15.31l7.64,13.34-7.64,13.34ZM169.12,95.33h14.98l7.49-13.04-7.49-13.04h-14.98l-7.49,13.04,7.49,13.04Z"/>
  <path class="st48" d="M69.91,82.44h-15.31l-7.64-13.34,7.64-13.34h15.31l7.64,13.34s-7.64,13.34-7.64,13.34ZM54.78,82.15h14.98l7.49-13.04-7.49-13.04h-14.98l-7.49,13.04,7.49,13.04Z"/>
  <path class="st42" d="M115.62,82.44h-15.31l-7.64-13.34,7.64-13.34h15.31l7.64,13.34-7.64,13.34ZM100.49,82.15h14.98l7.49-13.04-7.49-13.04h-14.98l-7.49,13.04,7.49,13.04Z"/>
  <path class="st22" d="M161.37,82.44h-15.31l-7.64-13.34,7.64-13.34h15.31l7.64,13.34-7.64,13.34ZM146.24,82.15h14.98l7.49-13.04-7.49-13.04h-14.98l-7.49,13.04,7.49,13.04Z"/>
  <path class="st44" d="M47.03,69.26h-15.27l-7.64-13.34,7.64-13.34h15.31l7.64,13.34-7.64,13.34h-.04ZM31.91,68.96h14.98l7.49-13.04-7.49-13.04h-14.98l-7.49,13.04,7.49,13.04Z"/>
  <path class="st44" d="M92.78,69.26h-15.31l-7.64-13.34,7.64-13.34h15.31l7.64,13.34-7.64,13.34ZM77.62,68.96h14.98l7.49-13.04-7.49-13.04h-14.98l-7.49,13.04s7.49,13.04,7.49,13.04Z"/>
  <path class="st41" d="M138.49,69.26h-15.31l-7.64-13.34,7.64-13.34h15.31l7.64,13.34-7.64,13.34ZM123.37,68.96h14.98l7.49-13.04-7.49-13.04h-14.98l-7.49,13.04s7.49,13.04,7.49,13.04Z"/>
  <path class="st33" d="M69.91,56.03h-15.31l-7.64-13.34,7.64-13.34h15.31l7.64,13.34s-7.64,13.34-7.64,13.34ZM54.78,55.77h14.98l7.49-13.04-7.49-13.04h-14.98l-7.49,13.04,7.49,13.04Z"/>
  <path class="st19" d="M115.62,56.03h-15.31l-7.64-13.34,7.64-13.34h15.31l7.64,13.34-7.64,13.34ZM100.49,55.77h14.98l7.49-13.04-7.49-13.04h-14.98l-7.49,13.04,7.49,13.04Z"/>
  <path class="st26" d="M161.37,56.03h-15.31l-7.64-13.34,7.64-13.34h15.31l7.64,13.34-7.64,13.34ZM146.24,55.77h14.98l7.49-13.04-7.49-13.04h-14.98l-7.49,13.04,7.49,13.04Z"/>
  <path class="st17" d="M47.03,42.84h-15.27l-7.64-13.34,7.64-13.34h15.31l7.64,13.34-7.64,13.34h-.04ZM31.91,42.58h14.98l7.49-13.04-7.49-13.04h-14.98l-7.49,13.04,7.49,13.04Z"/>
  <path class="st11" d="M92.78,42.84h-15.31l-7.64-13.34,7.64-13.34h15.31l7.64,13.34-7.64,13.34ZM77.62,42.58h14.98l7.49-13.04-7.49-13.04h-14.98l-7.49,13.04s7.49,13.04,7.49,13.04Z"/>
  <path class="st47" d="M138.49,42.84h-15.31l-7.64-13.34,7.64-13.34h15.31l7.64,13.34-7.64,13.34ZM123.37,42.58h14.98l7.49-13.04-7.49-13.04h-14.98l-7.49,13.04s7.49,13.04,7.49,13.04Z"/>
  <path class="st4" d="M184.24,42.84h-15.31l-7.64-13.34,7.64-13.34h15.31l7.64,13.34-7.64,13.34ZM169.12,42.58h14.98l7.49-13.04-7.49-13.04h-14.98l-7.49,13.04,7.49,13.04Z"/>
  <path class="st31" d="M71.47,161.46c0,.89-.75,1.64-1.64,1.64s-1.64-.75-1.64-1.64.75-1.64,1.64-1.64,1.64.75,1.64,1.64Z"/>
  <path class="st5" d="M117.26,161.46c0,.93-.75,1.71-1.68,1.71s-1.71-.78-1.71-1.71.75-1.71,1.71-1.71,1.68.78,1.68,1.71Z"/>
  <path class="st34" d="M48.37,174.65c0,.78-.63,1.42-1.42,1.42s-1.42-.63-1.42-1.42.63-1.42,1.42-1.42,1.42.63,1.42,1.42Z"/>
  <path class="st27" d="M93.97,174.65c0,.71-.56,1.3-1.27,1.3s-1.27-.6-1.27-1.3.56-1.3,1.27-1.3,1.27.6,1.27,1.3Z"/>
  <path class="st16" d="M78.85,174.65c0,.71-.56,1.3-1.27,1.3s-1.27-.6-1.27-1.3.56-1.3,1.27-1.3,1.27.6,1.27,1.3Z"/>
  <path class="st18" d="M170.23,148.27c0,.67-.52,1.23-1.19,1.23s-1.19-.56-1.19-1.23.56-1.23,1.19-1.23,1.19.56,1.19,1.23Z"/>
  <path class="st19" d="M71.02,135.08c0,.67-.52,1.23-1.19,1.23s-1.19-.56-1.19-1.23.52-1.23,1.19-1.23,1.19.56,1.19,1.23Z"/>
  <path class="st35" d="M117.22,161.42c0,.93-.75,1.68-1.68,1.68s-1.68-.75-1.68-1.68.75-1.68,1.68-1.68,1.68.75,1.68,1.68Z"/>
  <path class="st6" d="M124.63,148.27c0,.86-.67,1.53-1.49,1.53s-1.49-.67-1.49-1.53.67-1.53,1.49-1.53,1.49.67,1.49,1.53Z"/>
  <path class="st9" d="M116.96,135.08c0,.78-.63,1.42-1.42,1.42s-1.42-.63-1.42-1.42.63-1.42,1.42-1.42,1.42.63,1.42,1.42Z"/>
  <path class="st35" d="M101.83,161.42c0,.78-.63,1.42-1.42,1.42s-1.42-.63-1.42-1.42.63-1.42,1.42-1.42,1.42.63,1.42,1.42Z"/>
  <path class="st30" d="M101.46,135.05c0,.67-.56,1.23-1.23,1.23s-1.23-.56-1.23-1.23.56-1.23,1.23-1.23,1.23.56,1.23,1.23Z"/>
  <path class="st6" d="M124.75,121.9c0,.82-.63,1.45-1.45,1.45s-1.45-.63-1.45-1.45.63-1.45,1.45-1.45,1.45.67,1.45,1.45Z"/>
  <path class="st2" d="M71.4,108.71c0,.86-.71,1.6-1.56,1.6s-1.56-.71-1.56-1.6.71-1.6,1.56-1.6,1.56.71,1.56,1.6Z"/>
  <path class="st21" d="M117,135.05c0,.78-.63,1.45-1.42,1.45s-1.42-.63-1.42-1.45.63-1.45,1.42-1.45,1.42.63,1.42,1.45Z"/>
  <path class="st23" d="M94.31,121.86c0,.82-.63,1.45-1.45,1.45s-1.45-.63-1.45-1.45.63-1.45,1.45-1.45,1.45.63,1.45,1.45Z"/>
  <path class="st37" d="M94.05,95.48c0,.75-.6,1.34-1.34,1.34s-1.34-.6-1.34-1.34.6-1.34,1.34-1.34,1.34.6,1.34,1.34Z"/>
  <path class="st42" d="M147.51,108.67c0,.86-.67,1.53-1.53,1.53s-1.53-.67-1.53-1.53.67-1.53,1.53-1.53,1.53.67,1.53,1.53Z"/>
  <path class="st26" d="M170.76,121.86c0,.97-.78,1.75-1.71,1.75s-1.71-.78-1.71-1.75.78-1.75,1.71-1.75,1.71.78,1.71,1.75Z"/>
  <path class="st9" d="M71.29,108.67c0,.82-.63,1.45-1.45,1.45s-1.45-.67-1.45-1.45.63-1.45,1.45-1.45,1.45.63,1.45,1.45Z"/>
  <path class="st32" d="M147.43,108.67c0,.71-.6,1.3-1.3,1.3s-1.3-.6-1.3-1.3.6-1.3,1.3-1.3,1.3.6,1.3,1.3Z"/>
  <path class="st28" d="M185.77,95.48c0,.82-.67,1.49-1.45,1.49s-1.45-.67-1.45-1.49.67-1.49,1.45-1.49,1.45.67,1.45,1.49Z"/>
  <path class="st11" d="M33.29,69.11c0,.82-.67,1.49-1.45,1.49s-1.45-.67-1.45-1.49.67-1.49,1.45-1.49,1.45.67,1.45,1.49Z"/>
  <path class="st20" d="M94.31,69.11c0,.89-.75,1.64-1.64,1.64s-1.64-.75-1.64-1.64.75-1.64,1.64-1.64,1.64.75,1.64,1.64Z"/>
  <path class="st14" d="M139.5,95.48c0,.6-.48,1.12-1.08,1.12s-1.08-.48-1.08-1.12.48-1.12,1.08-1.12,1.08.48,1.08,1.12Z"/>
  <path class="st15" d="M94.05,69.11c0,.67-.52,1.19-1.19,1.19s-1.19-.52-1.19-1.19.52-1.19,1.19-1.19,1.19.52,1.19,1.19Z"/>
  <path class="st26" d="M101.83,82.29c0,.78-.63,1.42-1.38,1.42s-1.38-.63-1.38-1.42.63-1.42,1.38-1.42,1.38.63,1.38,1.42Z"/>
  <path class="st10" d="M48.49,69.11c0,.86-.67,1.53-1.53,1.53s-1.53-.71-1.53-1.53.67-1.53,1.53-1.53,1.53.67,1.53,1.53Z"/>
  <path class="st40" d="M55.68,55.92c0,.63-.52,1.15-1.15,1.15s-1.15-.52-1.15-1.15.52-1.15,1.15-1.15,1.15.52,1.15,1.15Z"/>
  <path class="st24" d="M33.17,69.11c0,.75-.6,1.34-1.34,1.34s-1.34-.6-1.34-1.34.6-1.34,1.34-1.34,1.34.6,1.34,1.34Z"/>
  <path class="st45" d="M94.23,42.73c0,.86-.67,1.53-1.53,1.53s-1.53-.67-1.53-1.53.67-1.53,1.53-1.53,1.53.67,1.53,1.53Z"/>
  <path class="st43" d="M139.87,42.73c0,.82-.63,1.45-1.45,1.45s-1.45-.67-1.45-1.45.63-1.45,1.45-1.45,1.45.67,1.45,1.45Z"/>
  <path class="st23" d="M170.53,69.11c0,.86-.67,1.53-1.53,1.53s-1.53-.67-1.53-1.53.67-1.53,1.53-1.53,1.53.67,1.53,1.53Z"/>
  <path class="st15" d="M33.1,42.73c0,.82-.63,1.45-1.45,1.45s-1.45-.63-1.45-1.45.63-1.45,1.45-1.45,1.45.63,1.45,1.45Z"/>
  <path class="st38" d="M32.99,16.35c0,.63-.52,1.15-1.15,1.15s-1.15-.52-1.15-1.15.52-1.15,1.15-1.15,1.15.52,1.15,1.15Z"/>
  <path class="st2" d="M71.47,29.54c0,.82-.67,1.49-1.49,1.49s-1.49-.67-1.49-1.49.67-1.49,1.49-1.49,1.49.67,1.49,1.49Z"/>
  <path class="st14" d="M124.75,16.35c0,.82-.67,1.49-1.49,1.49s-1.49-.67-1.49-1.49.67-1.49,1.49-1.49,1.49.67,1.49,1.49Z"/>
  <path class="st18" d="M185.58,16.35c0,.78-.63,1.42-1.42,1.42s-1.42-.63-1.42-1.42.63-1.42,1.42-1.42,1.42.63,1.42,1.42Z"/>
  <path class="st11" d="M170.49,42.73c0,.82-.67,1.49-1.49,1.49s-1.49-.67-1.49-1.49.67-1.49,1.49-1.49,1.49.67,1.49,1.49Z"/>
  <path class="st39" d="M33.21,16.35c0,.86-.71,1.56-1.56,1.56s-1.56-.71-1.56-1.56.71-1.56,1.56-1.56,1.56.71,1.56,1.56Z"/>
  <path class="st4" d="M48.52,16.35c0,.78-.63,1.38-1.38,1.38s-1.38-.63-1.38-1.38.63-1.38,1.38-1.38,1.38.63,1.38,1.38Z"/>
</svg>